<svg width="344px" height="24px" viewBox="0 0 344 24" version="1.1" xmlns="http://www.w3.org/2000/svg" xmlns:xlink="http://www.w3.org/1999/xlink">
    <g id="Page-1" stroke="none" stroke-width="1" fill="none" fill-rule="evenodd">
        <path d="M14.0664062,22.2480469 C13.1367141,22.6308613 12.1888069,22.9179678 11.2226562,23.109375 C10.2565056,23.3007822 9.23568246,23.3964844 8.16015625,23.3964844 C5.59894553,23.3964844 3.64160833,22.7106188 2.28808594,21.3388672 C0.934563545,19.9671155 0.2578125,17.9915494 0.2578125,15.4121094 C0.2578125,12.9147011 0.909498691,10.9414135 2.21289062,9.4921875 C3.51628256,8.0429615 5.29360854,7.31835938 7.54492188,7.31835938 C9.81446447,7.31835938 11.5758401,7.99055317 12.8291016,9.33496094 C14.082363,10.6793687 14.7089844,12.5729045 14.7089844,15.015625 L14.7089844,16.6425781 L4.33203125,16.6425781 C4.34114588,17.8457091 4.69661107,18.7434866 5.3984375,19.3359375 C6.10026393,19.9283884 7.14843053,20.2246094 8.54296875,20.2246094 C9.46354627,20.2246094 10.3704382,20.0924492 11.2636719,19.828125 C12.1569055,19.5638008 13.091141,19.1445341 14.0664062,18.5703125 L14.0664062,22.2480469 Z M10.6757812,13.6347656 C10.657552,12.5774687 10.3863958,11.777672 9.86230469,11.2353516 C9.33821353,10.6930311 8.56576031,10.421875 7.54492188,10.421875 C6.62434436,10.421875 5.89062773,10.7021456 5.34375,11.2626953 C4.79687227,11.823245 4.47330779,12.6184844 4.37304688,13.6484375 L10.6757812,13.6347656 Z M29.9785156,15.3847656 C29.9785156,13.9081957 29.7324243,12.7506552 29.2402344,11.9121094 C28.7480444,11.0735635 28.0690147,10.6542969 27.203125,10.6542969 C26.3372353,10.6542969 25.6536483,11.0735635 25.1523438,11.9121094 C24.6510392,12.7506552 24.4003906,13.9081957 24.4003906,15.3847656 C24.4003906,16.8613355 24.6510392,18.018876 25.1523438,18.8574219 C25.6536483,19.6959677 26.3372353,20.1152344 27.203125,20.1152344 C28.0690147,20.1152344 28.7480444,19.6959677 29.2402344,18.8574219 C29.7324243,18.018876 29.9785156,16.8613355 29.9785156,15.3847656 Z M24.4003906,9.86132812 C24.8925806,9.01366764 25.464515,8.37793181 26.1162109,7.95410156 C26.7679069,7.53027132 27.5039021,7.31835938 28.3242188,7.31835938 C30.1380299,7.31835938 31.5348258,8.01106078 32.5146484,9.39648438 C33.494471,10.781908 33.984375,12.7688673 33.984375,15.3574219 C33.984375,17.909518 33.5013069,19.8873628 32.5351562,21.2910156 C31.5690056,22.6946685 30.2109462,23.3964844 28.4609375,23.3964844 C27.54036,23.3964844 26.7382847,23.1731793 26.0546875,22.7265625 C25.3710903,22.2799457 24.8196636,21.6145878 24.4003906,20.7304688 L24.4003906,23 L20.4082031,23 L20.4082031,1.7265625 L24.4003906,1.7265625 L24.4003906,9.86132812 Z M40.7363281,7.6875 L48.6660156,7.6875 L48.6660156,19.9238281 L53.6425781,19.9238281 L53.6425781,23 L39.6699219,23 L39.6699219,19.9238281 L44.6601562,19.9238281 L44.6601562,10.7636719 L40.7363281,10.7636719 L40.7363281,7.6875 Z M44.6601562,0.236328125 L48.6660156,0.236328125 L48.6660156,4.91210938 L44.6601562,4.91210938 L44.6601562,0.236328125 Z M72.1386719,22.2480469 C71.2089797,22.6308613 70.2610725,22.9179678 69.2949219,23.109375 C68.3287712,23.3007822 67.3079481,23.3964844 66.2324219,23.3964844 C63.6712112,23.3964844 61.713874,22.7106188 60.3603516,21.3388672 C59.0068292,19.9671155 58.3300781,17.9915494 58.3300781,15.4121094 C58.3300781,12.9147011 58.9817643,10.9414135 60.2851562,9.4921875 C61.5885482,8.0429615 63.3658742,7.31835938 65.6171875,7.31835938 C67.8867301,7.31835938 69.6481057,7.99055317 70.9013672,9.33496094 C72.1546287,10.6793687 72.78125,12.5729045 72.78125,15.015625 L72.78125,16.6425781 L62.4042969,16.6425781 C62.4134115,17.8457091 62.7688767,18.7434866 63.4707031,19.3359375 C64.1725296,19.9283884 65.2206962,20.2246094 66.6152344,20.2246094 C67.5358119,20.2246094 68.4427039,20.0924492 69.3359375,19.828125 C70.2291711,19.5638008 71.1634066,19.1445341 72.1386719,18.5703125 L72.1386719,22.2480469 Z M68.7480469,13.6347656 C68.7298176,12.5774687 68.4586615,11.777672 67.9345703,11.2353516 C67.4104792,10.6930311 66.6380259,10.421875 65.6171875,10.421875 C64.69661,10.421875 63.9628934,10.7021456 63.4160156,11.2626953 C62.8691379,11.823245 62.5455734,12.6184844 62.4453125,13.6484375 L68.7480469,13.6347656 Z M88.0507812,15.3847656 C88.0507812,13.9081957 87.80469,12.7506552 87.3125,11.9121094 C86.82031,11.0735635 86.1412804,10.6542969 85.2753906,10.6542969 C84.4095009,10.6542969 83.725914,11.0735635 83.2246094,11.9121094 C82.7233048,12.7506552 82.4726562,13.9081957 82.4726562,15.3847656 C82.4726562,16.8613355 82.7233048,18.018876 83.2246094,18.8574219 C83.725914,19.6959677 84.4095009,20.1152344 85.2753906,20.1152344 C86.1412804,20.1152344 86.82031,19.6959677 87.3125,18.8574219 C87.80469,18.018876 88.0507812,16.8613355 88.0507812,15.3847656 Z M82.4726562,9.86132812 C82.9648462,9.01366764 83.5367806,8.37793181 84.1884766,7.95410156 C84.8401725,7.53027132 85.5761678,7.31835938 86.3964844,7.31835938 C88.2102955,7.31835938 89.6070915,8.01106078 90.5869141,9.39648438 C91.5667367,10.781908 92.0566406,12.7688673 92.0566406,15.3574219 C92.0566406,17.909518 91.5735725,19.8873628 90.6074219,21.2910156 C89.6412712,22.6946685 88.2832119,23.3964844 86.5332031,23.3964844 C85.6126256,23.3964844 84.8105503,23.1731793 84.1269531,22.7265625 C83.443356,22.2799457 82.8919292,21.6145878 82.4726562,20.7304688 L82.4726562,23 L78.4804688,23 L78.4804688,1.7265625 L82.4726562,1.7265625 L82.4726562,9.86132812 Z M98.8085938,7.6875 L106.738281,7.6875 L106.738281,19.9238281 L111.714844,19.9238281 L111.714844,23 L97.7421875,23 L97.7421875,19.9238281 L102.732422,19.9238281 L102.732422,10.7636719 L98.8085938,10.7636719 L98.8085938,7.6875 Z M102.732422,0.236328125 L106.738281,0.236328125 L106.738281,4.91210938 L102.732422,4.91210938 L102.732422,0.236328125 Z M130.210938,22.2480469 C129.281245,22.6308613 128.333338,22.9179678 127.367188,23.109375 C126.401037,23.3007822 125.380214,23.3964844 124.304688,23.3964844 C121.743477,23.3964844 119.78614,22.7106188 118.432617,21.3388672 C117.079095,19.9671155 116.402344,17.9915494 116.402344,15.4121094 C116.402344,12.9147011 117.05403,10.9414135 118.357422,9.4921875 C119.660814,8.0429615 121.43814,7.31835938 123.689453,7.31835938 C125.958996,7.31835938 127.720371,7.99055317 128.973633,9.33496094 C130.226894,10.6793687 130.853516,12.5729045 130.853516,15.015625 L130.853516,16.6425781 L120.476562,16.6425781 C120.485677,17.8457091 120.841142,18.7434866 121.542969,19.3359375 C122.244795,19.9283884 123.292962,20.2246094 124.6875,20.2246094 C125.608078,20.2246094 126.514969,20.0924492 127.408203,19.828125 C128.301437,19.5638008 129.235672,19.1445341 130.210938,18.5703125 L130.210938,22.2480469 Z M126.820312,13.6347656 C126.802083,12.5774687 126.530927,11.777672 126.006836,11.2353516 C125.482745,10.6930311 124.710292,10.421875 123.689453,10.421875 C122.768876,10.421875 122.035159,10.7021456 121.488281,11.2626953 C120.941404,11.823245 120.617839,12.6184844 120.517578,13.6484375 L126.820312,13.6347656 Z M150.265625,7.6875 L145.398438,23 L140.462891,23 L135.595703,7.6875 L139.65625,7.6875 L142.923828,19.6367188 L146.205078,7.6875 L150.265625,7.6875 Z M156.880859,7.6875 L164.810547,7.6875 L164.810547,19.9238281 L169.787109,19.9238281 L169.787109,23 L155.814453,23 L155.814453,19.9238281 L160.804688,19.9238281 L160.804688,10.7636719 L156.880859,10.7636719 L156.880859,7.6875 Z M160.804688,0.236328125 L164.810547,0.236328125 L164.810547,4.91210938 L160.804688,4.91210938 L160.804688,0.236328125 Z M184.03125,9.86132812 L184.03125,1.7265625 L188.023438,1.7265625 L188.023438,23 L184.03125,23 L184.03125,20.7304688 C183.602862,21.6145878 183.049157,22.2799457 182.370117,22.7265625 C181.691077,23.1731793 180.891281,23.3964844 179.970703,23.3964844 C178.220694,23.3964844 176.862635,22.6946685 175.896484,21.2910156 C174.930334,19.8873628 174.447266,17.909518 174.447266,15.3574219 C174.447266,12.7688673 174.93717,10.781908 175.916992,9.39648438 C176.896815,8.01106078 178.293611,7.31835938 180.107422,7.31835938 C180.927738,7.31835938 181.663734,7.53027132 182.31543,7.95410156 C182.967126,8.37793181 183.53906,9.01366764 184.03125,9.86132812 Z M178.453125,15.3847656 C178.453125,16.8613355 178.699216,18.018876 179.191406,18.8574219 C179.683596,19.6959677 180.362626,20.1152344 181.228516,20.1152344 C182.094405,20.1152344 182.777992,19.6959677 183.279297,18.8574219 C183.780601,18.018876 184.03125,16.8613355 184.03125,15.3847656 C184.03125,13.9081957 183.780601,12.7506552 183.279297,11.9121094 C182.777992,11.0735635 182.094405,10.6542969 181.228516,10.6542969 C180.362626,10.6542969 179.683596,11.0735635 179.191406,11.9121094 C178.699216,12.7506552 178.453125,13.9081957 178.453125,15.3847656 Z M207.640625,22.2480469 C206.710933,22.6308613 205.763026,22.9179678 204.796875,23.109375 C203.830724,23.3007822 202.809901,23.3964844 201.734375,23.3964844 C199.173164,23.3964844 197.215827,22.7106188 195.862305,21.3388672 C194.508782,19.9671155 193.832031,17.9915494 193.832031,15.4121094 C193.832031,12.9147011 194.483717,10.9414135 195.787109,9.4921875 C197.090501,8.0429615 198.867827,7.31835938 201.119141,7.31835938 C203.388683,7.31835938 205.150059,7.99055317 206.40332,9.33496094 C207.656582,10.6793687 208.283203,12.5729045 208.283203,15.015625 L208.283203,16.6425781 L197.90625,16.6425781 C197.915365,17.8457091 198.27083,18.7434866 198.972656,19.3359375 C199.674483,19.9283884 200.722649,20.2246094 202.117188,20.2246094 C203.037765,20.2246094 203.944657,20.0924492 204.837891,19.828125 C205.731124,19.5638008 206.66536,19.1445341 207.640625,18.5703125 L207.640625,22.2480469 Z M204.25,13.6347656 C204.231771,12.5774687 203.960615,11.777672 203.436523,11.2353516 C202.912432,10.6930311 202.139979,10.421875 201.119141,10.421875 C200.198563,10.421875 199.464846,10.7021456 198.917969,11.2626953 C198.371091,11.823245 198.047527,12.6184844 197.947266,13.6484375 L204.25,13.6347656 Z M226.574219,13.0605469 L226.574219,23 L222.595703,23 L222.595703,13.6757812 C222.595703,12.5637965 222.438478,11.7685571 222.124023,11.2900391 C221.809569,10.811521 221.296879,10.5722656 220.585938,10.5722656 C219.865882,10.5722656 219.298505,10.8958301 218.883789,11.5429688 C218.469073,12.1901074 218.261719,13.0878849 218.261719,14.2363281 L218.261719,23 L214.283203,23 L214.283203,7.6875 L218.261719,7.6875 L218.261719,9.984375 C218.544272,9.13671451 219.02734,8.48047107 219.710938,8.015625 C220.394535,7.55077893 221.219396,7.31835938 222.185547,7.31835938 C223.634773,7.31835938 224.728512,7.79914884 225.466797,8.76074219 C226.205082,9.72233554 226.574219,11.1555894 226.574219,13.0605469 Z M245.794922,22.2207031 C245.120439,22.6126322 244.395837,22.9065745 243.621094,23.1025391 C242.84635,23.2985036 242.012374,23.3964844 241.119141,23.3964844 C238.758452,23.3964844 236.912767,22.685554 235.582031,21.2636719 C234.251295,19.8417898 233.585938,17.8730595 233.585938,15.3574219 C233.585938,12.8326697 234.255853,10.8571035 235.595703,9.43066406 C236.935554,8.00422464 238.785795,7.29101562 241.146484,7.29101562 C241.966801,7.29101562 242.757483,7.38671779 243.518555,7.578125 C244.279626,7.76953221 245.038408,8.0657532 245.794922,8.46679688 L245.794922,12.1308594 C245.211586,11.6295548 244.571293,11.2444675 243.874023,10.9755859 C243.176754,10.7067044 242.454431,10.5722656 241.707031,10.5722656 C240.403639,10.5722656 239.401045,10.986975 238.699219,11.8164062 C237.997392,12.6458375 237.646484,13.8261642 237.646484,15.3574219 C237.646484,16.8886795 237.997392,18.064449 238.699219,18.8847656 C239.401045,19.7050822 240.403639,20.1152344 241.707031,20.1152344 C242.481775,20.1152344 243.206377,19.9853529 243.880859,19.7255859 C244.555342,19.465819 245.193356,19.0716172 245.794922,18.5429688 L245.794922,22.2207031 Z M265.712891,22.2480469 C264.783198,22.6308613 263.835291,22.9179678 262.869141,23.109375 C261.90299,23.3007822 260.882167,23.3964844 259.806641,23.3964844 C257.24543,23.3964844 255.288093,22.7106188 253.93457,21.3388672 C252.581048,19.9671155 251.904297,17.9915494 251.904297,15.4121094 C251.904297,12.9147011 252.555983,10.9414135 253.859375,9.4921875 C255.162767,8.0429615 256.940093,7.31835938 259.191406,7.31835938 C261.460949,7.31835938 263.222324,7.99055317 264.475586,9.33496094 C265.728847,10.6793687 266.355469,12.5729045 266.355469,15.015625 L266.355469,16.6425781 L255.978516,16.6425781 C255.98763,17.8457091 256.343095,18.7434866 257.044922,19.3359375 C257.746748,19.9283884 258.794915,20.2246094 260.189453,20.2246094 C261.110031,20.2246094 262.016923,20.0924492 262.910156,19.828125 C263.80339,19.5638008 264.737625,19.1445341 265.712891,18.5703125 L265.712891,22.2480469 Z M262.322266,13.6347656 C262.304036,12.5774687 262.03288,11.777672 261.508789,11.2353516 C260.984698,10.6930311 260.212245,10.421875 259.191406,10.421875 C258.270829,10.421875 257.537112,10.7021456 256.990234,11.2626953 C256.443357,11.823245 256.119792,12.6184844 256.019531,13.6484375 L262.322266,13.6347656 Z M276.142578,17.9824219 L280.695312,17.9824219 L280.695312,23 L276.142578,23 L276.142578,17.9824219 Z M303.867188,22.2207031 C303.192705,22.6126322 302.468103,22.9065745 301.693359,23.1025391 C300.918616,23.2985036 300.08464,23.3964844 299.191406,23.3964844 C296.830717,23.3964844 294.985033,22.685554 293.654297,21.2636719 C292.323561,19.8417898 291.658203,17.8730595 291.658203,15.3574219 C291.658203,12.8326697 292.328118,10.8571035 293.667969,9.43066406 C295.007819,8.00422464 296.858061,7.29101562 299.21875,7.29101562 C300.039067,7.29101562 300.829749,7.38671779 301.59082,7.578125 C302.351892,7.76953221 303.110673,8.0657532 303.867188,8.46679688 L303.867188,12.1308594 C303.283851,11.6295548 302.643558,11.2444675 301.946289,10.9755859 C301.24902,10.7067044 300.526696,10.5722656 299.779297,10.5722656 C298.475905,10.5722656 297.473311,10.986975 296.771484,11.8164062 C296.069658,12.6458375 295.71875,13.8261642 295.71875,15.3574219 C295.71875,16.8886795 296.069658,18.064449 296.771484,18.8847656 C297.473311,19.7050822 298.475905,20.1152344 299.779297,20.1152344 C300.55404,20.1152344 301.278642,19.9853529 301.953125,19.7255859 C302.627608,19.465819 303.265622,19.0716172 303.867188,18.5429688 L303.867188,22.2207031 Z M317.140625,10.5722656 C316.183589,10.5722656 315.431643,10.9938109 314.884766,11.8369141 C314.337888,12.6800172 314.064453,13.8535081 314.064453,15.3574219 C314.064453,16.8613356 314.337888,18.0348265 314.884766,18.8779297 C315.431643,19.7210329 316.183589,20.1425781 317.140625,20.1425781 C318.106776,20.1425781 318.863279,19.7210329 319.410156,18.8779297 C319.957034,18.0348265 320.230469,16.8613356 320.230469,15.3574219 C320.230469,13.8535081 319.957034,12.6800172 319.410156,11.8369141 C318.863279,10.9938109 318.106776,10.5722656 317.140625,10.5722656 Z M310.058594,15.3574219 C310.058594,12.8873574 310.698887,10.9300202 311.979492,9.48535156 C313.260098,8.04068288 314.980458,7.31835938 317.140625,7.31835938 C319.309907,7.31835938 321.034824,8.04068288 322.31543,9.48535156 C323.596035,10.9300202 324.236328,12.8873574 324.236328,15.3574219 C324.236328,17.8274863 323.596035,19.7848235 322.31543,21.2294922 C321.034824,22.6741609 319.309907,23.3964844 317.140625,23.3964844 C314.980458,23.3964844 313.260098,22.6741609 311.979492,21.2294922 C310.698887,19.7848235 310.058594,17.8274863 310.058594,15.3574219 Z M337.509766,9.21875 C337.810548,8.57161135 338.193357,8.09310051 338.658203,7.78320312 C339.123049,7.47330574 339.692705,7.31835938 340.367188,7.31835938 C341.688809,7.31835938 342.602537,7.77408398 343.108398,8.68554688 C343.61426,9.59700977 343.867188,11.4928241 343.867188,14.3730469 L343.867188,23 L340.585938,23 L340.585938,13.1699219 C340.585938,12.0305933 340.49935,11.2695332 340.326172,10.8867188 C340.152994,10.5039043 339.838544,10.3125 339.382812,10.3125 C338.927081,10.3125 338.608074,10.5084616 338.425781,10.9003906 C338.243489,11.2923197 338.152344,12.0488225 338.152344,13.1699219 L338.152344,23 L334.912109,23 L334.912109,13.1699219 C334.912109,12.0488225 334.820964,11.2923197 334.638672,10.9003906 C334.456379,10.5084616 334.137372,10.3125 333.681641,10.3125 C333.225909,10.3125 332.911459,10.5039043 332.738281,10.8867188 C332.565103,11.2695332 332.478516,12.0305933 332.478516,13.1699219 L332.478516,23 L329.197266,23 L329.197266,7.6875 L332.109375,7.6875 L332.109375,9.2734375 C332.337241,8.67187199 332.70182,8.19563978 333.203125,7.84472656 C333.70443,7.49381335 334.264971,7.31835938 334.884766,7.31835938 C335.50456,7.31835938 336.069659,7.50292784 336.580078,7.87207031 C337.090497,8.24121278 337.40039,8.69010152 337.509766,9.21875 Z" id="uniuniunicode.com" fill="#000000" fill-rule="nonzero"></path>
    </g>
</svg>