<svg width="251" height="31" viewBox="0 0 251 31" fill="none" xmlns="http://www.w3.org/2000/svg">
<path d="M4.8607 12.8789V22.7051C4.8607 25.541 5.97984 26.959 8.21812 26.959C10.4564 26.959 11.5755 25.541 11.5755 22.7051V12.8789H15.5306V22.793C15.5306 24.1641 15.3607 25.3477 15.0209 26.3438C14.6927 27.2344 14.1244 28.0371 13.3158 28.752C11.9798 29.9121 10.2806 30.4922 8.21812 30.4922C6.16734 30.4922 4.47398 29.9121 3.13805 28.752C2.31773 28.0371 1.73766 27.2344 1.39781 26.3438C1.06969 25.5469 0.905624 24.3633 0.905624 22.793V12.8789H4.8607ZM21.9628 12.8789H25.9355V14.4609C27.3183 13.0898 28.8769 12.4043 30.6112 12.4043C32.6034 12.4043 34.1562 13.0312 35.2695 14.2852C36.2304 15.3516 36.7109 17.0918 36.7109 19.5059V30H32.7382V20.4375C32.7382 18.75 32.5038 17.584 32.0351 16.9395C31.578 16.2832 30.746 15.9551 29.539 15.9551C28.2265 15.9551 27.2948 16.3887 26.7441 17.2559C26.205 18.1113 25.9355 19.6055 25.9355 21.7383V30H21.9628V12.8789ZM47.1157 12.8789V30H43.1606V12.8789H47.1157ZM42.563 5.75977C42.563 5.06836 42.8149 4.4707 43.3188 3.9668C43.8227 3.46289 44.4263 3.21094 45.1294 3.21094C45.8442 3.21094 46.4536 3.46289 46.9575 3.9668C47.4614 4.45898 47.7134 5.0625 47.7134 5.77734C47.7134 6.49219 47.4614 7.10156 46.9575 7.60547C46.4653 8.10938 45.8618 8.36133 45.147 8.36133C44.4321 8.36133 43.8227 8.10938 43.3188 7.60547C42.8149 7.10156 42.563 6.48633 42.563 5.75977ZM57.5205 12.8789V22.7051C57.5205 25.541 58.6397 26.959 60.878 26.959C63.1162 26.959 64.2354 25.541 64.2354 22.7051V12.8789H68.1905V22.793C68.1905 24.1641 68.0205 25.3477 67.6807 26.3438C67.3526 27.2344 66.7842 28.0371 65.9756 28.752C64.6397 29.9121 62.9405 30.4922 60.878 30.4922C58.8272 30.4922 57.1338 29.9121 55.7979 28.752C54.9776 28.0371 54.3975 27.2344 54.0577 26.3438C53.7295 25.5469 53.5655 24.3633 53.5655 22.793V12.8789H57.5205ZM74.6227 12.8789H78.5953V14.4609C79.9781 13.0898 81.5367 12.4043 83.2711 12.4043C85.2633 12.4043 86.816 13.0312 87.9293 14.2852C88.8902 15.3516 89.3707 17.0918 89.3707 19.5059V30H85.398V20.4375C85.398 18.75 85.1637 17.584 84.6949 16.9395C84.2379 16.2832 83.4059 15.9551 82.1988 15.9551C80.8863 15.9551 79.9547 16.3887 79.4039 17.2559C78.8648 18.1113 78.5953 19.6055 78.5953 21.7383V30H74.6227V12.8789ZM99.7755 12.8789V30H95.8205V12.8789H99.7755ZM95.2228 5.75977C95.2228 5.06836 95.4748 4.4707 95.9787 3.9668C96.4826 3.46289 97.0861 3.21094 97.7892 3.21094C98.5041 3.21094 99.1134 3.46289 99.6173 3.9668C100.121 4.45898 100.373 5.0625 100.373 5.77734C100.373 6.49219 100.121 7.10156 99.6173 7.60547C99.1252 8.10938 98.5216 8.36133 97.8068 8.36133C97.0919 8.36133 96.4826 8.10938 95.9787 7.60547C95.4748 7.10156 95.2228 6.48633 95.2228 5.75977ZM110.18 12.8789V22.7051C110.18 25.541 111.3 26.959 113.538 26.959C115.776 26.959 116.895 25.541 116.895 22.7051V12.8789H120.85V22.793C120.85 24.1641 120.68 25.3477 120.341 26.3438C120.012 27.2344 119.444 28.0371 118.635 28.752C117.3 29.9121 115.6 30.4922 113.538 30.4922C111.487 30.4922 109.794 29.9121 108.458 28.752C107.637 28.0371 107.057 27.2344 106.717 26.3438C106.389 25.5469 106.225 24.3633 106.225 22.793V12.8789H110.18ZM127.283 12.8789H131.255V14.4609C132.638 13.0898 134.197 12.4043 135.931 12.4043C137.923 12.4043 139.476 13.0312 140.589 14.2852C141.55 15.3516 142.031 17.0918 142.031 19.5059V30H138.058V20.4375C138.058 18.75 137.824 17.584 137.355 16.9395C136.898 16.2832 136.066 15.9551 134.859 15.9551C133.546 15.9551 132.615 16.3887 132.064 17.2559C131.525 18.1113 131.255 19.6055 131.255 21.7383V30H127.283V12.8789ZM152.435 12.8789V30H148.48V12.8789H152.435ZM147.883 5.75977C147.883 5.06836 148.135 4.4707 148.639 3.9668C149.142 3.46289 149.746 3.21094 150.449 3.21094C151.164 3.21094 151.773 3.46289 152.277 3.9668C152.781 4.45898 153.033 5.0625 153.033 5.77734C153.033 6.49219 152.781 7.10156 152.277 7.60547C151.785 8.10938 151.181 8.36133 150.467 8.36133C149.752 8.36133 149.142 8.10938 148.639 7.60547C148.135 7.10156 147.883 6.48633 147.883 5.75977ZM172.209 13.6172V18.873C171.307 17.7715 170.498 17.0156 169.784 16.6055C169.08 16.1836 168.254 15.9727 167.305 15.9727C165.817 15.9727 164.58 16.4941 163.596 17.5371C162.612 18.5801 162.12 19.8867 162.12 21.457C162.12 23.0625 162.594 24.3809 163.543 25.4121C164.504 26.4434 165.729 26.959 167.217 26.959C168.166 26.959 169.004 26.7539 169.731 26.3438C170.434 25.9453 171.26 25.1719 172.209 24.0234V29.2441C170.604 30.0762 168.998 30.4922 167.393 30.4922C164.745 30.4922 162.53 29.6367 160.748 27.9258C158.967 26.2031 158.077 24.0645 158.077 21.5098C158.077 18.9551 158.979 16.7988 160.784 15.041C162.588 13.2832 164.803 12.4043 167.428 12.4043C169.116 12.4043 170.709 12.8086 172.209 13.6172ZM176.673 21.3164C176.673 18.8438 177.558 16.7402 179.327 15.0059C181.097 13.2715 183.253 12.4043 185.796 12.4043C188.351 12.4043 190.519 13.2773 192.3 15.0234C194.058 16.7695 194.936 18.9141 194.936 21.457C194.936 24.0234 194.052 26.1738 192.282 27.9082C190.501 29.6309 188.315 30.4922 185.726 30.4922C183.159 30.4922 181.009 29.6133 179.274 27.8555C177.54 26.1211 176.673 23.9414 176.673 21.3164ZM180.716 21.3867C180.716 23.0977 181.173 24.4512 182.087 25.4473C183.024 26.4551 184.261 26.959 185.796 26.959C187.343 26.959 188.579 26.4609 189.505 25.4648C190.431 24.4688 190.894 23.1387 190.894 21.4746C190.894 19.8105 190.431 18.4805 189.505 17.4844C188.567 16.4766 187.331 15.9727 185.796 15.9727C184.284 15.9727 183.06 16.4766 182.122 17.4844C181.185 18.4922 180.716 19.793 180.716 21.3867ZM213.199 0.310547H217.171V30H213.199V28.207C211.64 29.7305 209.876 30.4922 207.908 30.4922C205.564 30.4922 203.619 29.6367 202.072 27.9258C200.537 26.1797 199.769 24 199.769 21.3867C199.769 18.832 200.537 16.6992 202.072 14.9883C203.595 13.2656 205.511 12.4043 207.82 12.4043C209.824 12.4043 211.617 13.2246 213.199 14.8652V0.310547ZM203.812 21.3867C203.812 23.0273 204.251 24.3633 205.13 25.3945C206.033 26.4375 207.169 26.959 208.541 26.959C210.005 26.959 211.189 26.4551 212.091 25.4473C212.994 24.4043 213.445 23.0801 213.445 21.4746C213.445 19.8691 212.994 18.5449 212.091 17.502C211.189 16.4824 210.017 15.9727 208.576 15.9727C207.216 15.9727 206.08 16.4883 205.166 17.5195C204.263 18.5625 203.812 19.8516 203.812 21.3867ZM239.195 22.3711H226.926C227.031 23.7773 227.488 24.8965 228.297 25.7285C229.106 26.5488 230.143 26.959 231.408 26.959C232.393 26.959 233.207 26.7246 233.852 26.2559C234.484 25.7871 235.205 24.9199 236.014 23.6543L239.354 25.5176C238.838 26.3965 238.293 27.1523 237.719 27.7852C237.145 28.4062 236.529 28.9219 235.873 29.332C235.217 29.7305 234.508 30.0234 233.746 30.2109C232.984 30.3984 232.158 30.4922 231.268 30.4922C228.713 30.4922 226.662 29.6719 225.115 28.0312C223.568 26.3789 222.795 24.1875 222.795 21.457C222.795 18.75 223.545 16.5586 225.045 14.8828C226.557 13.2305 228.561 12.4043 231.057 12.4043C233.576 12.4043 235.568 13.207 237.033 14.8125C238.486 16.4062 239.213 18.6152 239.213 21.4395L239.195 22.3711ZM235.135 19.1367C234.584 17.0273 233.254 15.9727 231.145 15.9727C230.664 15.9727 230.213 16.0488 229.791 16.2012C229.369 16.3418 228.982 16.5527 228.631 16.834C228.291 17.1035 227.998 17.4316 227.752 17.8184C227.506 18.2051 227.318 18.6445 227.19 19.1367H235.135ZM245.592 28.0312C245.592 27.375 245.833 26.8066 246.313 26.3262C246.794 25.8457 247.368 25.6055 248.036 25.6055C248.704 25.6055 249.278 25.8457 249.758 26.3262C250.239 26.8066 250.479 27.3809 250.479 28.0488C250.479 28.7285 250.239 29.3086 249.758 29.7891C249.29 30.2578 248.715 30.4922 248.036 30.4922C247.344 30.4922 246.764 30.2578 246.296 29.7891C245.827 29.3203 245.592 28.7344 245.592 28.0312Z" fill="#333333"/>
</svg>
