<?xml version="1.0" encoding="UTF-8"?>
<svg width="132px" height="17px" viewBox="0 0 132 17" version="1.1" xmlns="http://www.w3.org/2000/svg" xmlns:xlink="http://www.w3.org/1999/xlink">
    <!-- Generator: Sketch 55.2 (78181) - https://sketchapp.com -->
    <title>uniuniunicode</title>
    <desc>Created with Sketch.</desc>
    <g id="Page-1" stroke="none" stroke-width="1" fill="none" fill-rule="evenodd">
        <g id="Artboard" transform="translate(-251.000000, -207.000000)" fill="#333333" fill-rule="nonzero">
            <path d="M256.285,223.06 C253.685,223.06 251.545,220.8 251.545,218.04 L251.545,214.22 C251.545,213.56 252.045,213.02 252.665,213.02 C253.305,213.02 253.925,213.56 253.925,214.22 L253.925,218.04 C253.925,219.48 255.125,220.64 256.285,220.64 C257.645,220.64 258.665,219.48 258.665,218.04 L258.665,214.38 C258.665,213.7 259.365,213.18 259.905,213.18 C260.525,213.18 261.045,213.7 261.045,214.38 L261.045,218.04 C261.045,220.8 258.905,223.06 256.285,223.06 Z M268.155,213.02 C270.735,213.02 272.835,215.24 272.835,217.98 L272.835,221.76 C272.835,222.42 272.315,222.96 271.655,222.96 C270.975,222.96 270.455,222.42 270.455,221.76 L270.455,217.98 C270.455,216.56 269.415,215.42 268.155,215.42 C266.595,215.42 265.795,216.98 265.795,218.36 L265.795,221.76 C265.795,222.42 265.255,222.96 264.595,222.96 C263.935,222.96 263.395,222.42 263.395,221.76 L263.395,214.12 C263.395,213.46 263.935,212.92 264.595,212.92 C265.115,212.92 265.555,213.26 265.715,213.74 C266.435,213.28 267.255,213.02 268.155,213.02 Z M276.545,211.26 C275.845,211.26 275.285,210.7 275.285,210.04 L275.285,209.94 C275.285,209.24 275.845,208.7 276.545,208.7 C277.205,208.7 277.765,209.24 277.765,209.94 L277.765,210.04 C277.765,210.7 277.205,211.26 276.545,211.26 Z M276.545,223 C275.845,223 275.285,222.44 275.285,221.76 L275.285,214.04 C275.285,213.36 275.845,212.82 276.545,212.82 C277.205,212.82 277.765,213.36 277.765,214.04 L277.765,221.76 C277.765,222.44 277.205,223 276.545,223 Z M285.055,223.06 C282.455,223.06 280.315,220.8 280.315,218.04 L280.315,214.22 C280.315,213.56 280.815,213.02 281.435,213.02 C282.075,213.02 282.695,213.56 282.695,214.22 L282.695,218.04 C282.695,219.48 283.895,220.64 285.055,220.64 C286.415,220.64 287.435,219.48 287.435,218.04 L287.435,214.38 C287.435,213.7 288.135,213.18 288.675,213.18 C289.295,213.18 289.815,213.7 289.815,214.38 L289.815,218.04 C289.815,220.8 287.675,223.06 285.055,223.06 Z M296.925,213.02 C299.505,213.02 301.605,215.24 301.605,217.98 L301.605,221.76 C301.605,222.42 301.085,222.96 300.425,222.96 C299.745,222.96 299.225,222.42 299.225,221.76 L299.225,217.98 C299.225,216.56 298.185,215.42 296.925,215.42 C295.365,215.42 294.565,216.98 294.565,218.36 L294.565,221.76 C294.565,222.42 294.025,222.96 293.365,222.96 C292.705,222.96 292.165,222.42 292.165,221.76 L292.165,214.12 C292.165,213.46 292.705,212.92 293.365,212.92 C293.885,212.92 294.325,213.26 294.485,213.74 C295.205,213.28 296.025,213.02 296.925,213.02 Z M305.315,211.26 C304.615,211.26 304.055,210.7 304.055,210.04 L304.055,209.94 C304.055,209.24 304.615,208.7 305.315,208.7 C305.975,208.7 306.535,209.24 306.535,209.94 L306.535,210.04 C306.535,210.7 305.975,211.26 305.315,211.26 Z M305.315,223 C304.615,223 304.055,222.44 304.055,221.76 L304.055,214.04 C304.055,213.36 304.615,212.82 305.315,212.82 C305.975,212.82 306.535,213.36 306.535,214.04 L306.535,221.76 C306.535,222.44 305.975,223 305.315,223 Z M313.825,223.06 C311.225,223.06 309.085,220.8 309.085,218.04 L309.085,214.22 C309.085,213.56 309.585,213.02 310.205,213.02 C310.845,213.02 311.465,213.56 311.465,214.22 L311.465,218.04 C311.465,219.48 312.665,220.64 313.825,220.64 C315.185,220.64 316.205,219.48 316.205,218.04 L316.205,214.38 C316.205,213.7 316.905,213.18 317.445,213.18 C318.065,213.18 318.585,213.7 318.585,214.38 L318.585,218.04 C318.585,220.8 316.445,223.06 313.825,223.06 Z M325.695,213.02 C328.275,213.02 330.375,215.24 330.375,217.98 L330.375,221.76 C330.375,222.42 329.855,222.96 329.195,222.96 C328.515,222.96 327.995,222.42 327.995,221.76 L327.995,217.98 C327.995,216.56 326.955,215.42 325.695,215.42 C324.135,215.42 323.335,216.98 323.335,218.36 L323.335,221.76 C323.335,222.42 322.795,222.96 322.135,222.96 C321.475,222.96 320.935,222.42 320.935,221.76 L320.935,214.12 C320.935,213.46 321.475,212.92 322.135,212.92 C322.655,212.92 323.095,213.26 323.255,213.74 C323.975,213.28 324.795,213.02 325.695,213.02 Z M334.085,211.26 C333.385,211.26 332.825,210.7 332.825,210.04 L332.825,209.94 C332.825,209.24 333.385,208.7 334.085,208.7 C334.745,208.7 335.305,209.24 335.305,209.94 L335.305,210.04 C335.305,210.7 334.745,211.26 334.085,211.26 Z M334.085,223 C333.385,223 332.825,222.44 332.825,221.76 L332.825,214.04 C332.825,213.36 333.385,212.82 334.085,212.82 C334.745,212.82 335.305,213.36 335.305,214.04 L335.305,221.76 C335.305,222.44 334.745,223 334.085,223 Z M342.875,222.94 C341.555,222.94 340.335,222.44 339.395,221.54 C338.435,220.6 337.895,219.36 337.855,218.02 C337.835,216.7 338.315,215.42 339.275,214.46 C340.195,213.5 341.435,212.96 342.775,212.92 C344.115,212.9 345.375,213.4 346.335,214.34 C346.815,214.78 346.835,215.56 346.375,216.02 C345.915,216.5 345.155,216.52 344.675,216.06 C344.175,215.58 343.515,215.32 342.815,215.32 C342.115,215.32 341.475,215.62 340.975,216.12 C340.515,216.62 340.235,217.28 340.255,217.98 C340.255,218.66 340.555,219.34 341.055,219.8 C341.555,220.3 342.215,220.56 342.895,220.54 C343.555,220.54 344.175,220.28 344.655,219.84 C345.115,219.38 345.895,219.42 346.335,219.9 C346.795,220.38 346.755,221.14 346.275,221.6 C345.375,222.44 344.195,222.92 342.955,222.94 L342.875,222.94 Z M353.805,222.96 C351.045,222.96 348.785,220.72 348.785,217.94 C348.785,215.18 351.045,212.92 353.805,212.92 C356.565,212.92 358.825,215.18 358.845,217.96 C358.825,220.72 356.565,222.96 353.805,222.96 Z M353.805,215.38 C352.385,215.38 351.245,216.52 351.245,217.94 C351.245,219.36 352.385,220.5 353.805,220.5 C355.225,220.5 356.365,219.36 356.365,217.94 C356.365,216.52 355.225,215.38 353.805,215.38 Z M369.475,207.82 C370.155,207.82 370.695,208.38 370.695,209.04 L370.695,221.76 C370.695,222.42 370.155,222.96 369.475,222.96 C368.935,222.96 368.475,222.62 368.315,222.12 C367.515,222.68 366.515,223 365.455,223 C362.675,223 360.395,220.74 360.395,217.94 C360.395,215.16 362.675,212.88 365.455,212.88 C366.495,212.88 367.455,213.2 368.275,213.72 L368.275,209.04 C368.275,208.38 368.815,207.82 369.475,207.82 Z M365.455,220.58 C366.915,220.58 368.095,219.4 368.095,217.94 C368.095,216.48 366.915,215.3 365.455,215.3 C363.995,215.3 362.815,216.48 362.815,217.94 C362.815,219.4 363.995,220.58 365.455,220.58 Z M382.045,217.94 C381.885,218.32 381.545,218.66 381.065,218.66 L374.905,218.66 C375.185,219.8 376.205,220.68 377.445,220.68 C378.085,220.68 379.025,220.42 379.545,219.92 C380.025,219.46 380.785,219.46 381.245,219.94 C381.725,220.4 381.705,221.18 381.225,221.64 C380.125,222.7 378.585,223.06 377.445,223.06 C374.665,223.06 372.445,220.82 372.445,218.04 C372.445,215.3 374.665,213.02 377.445,213.02 C377.745,213.02 378.025,213.04 378.325,213.1 C379.685,213.36 380.845,214.2 381.565,215.4 C381.885,215.96 382.245,216.7 382.205,217.36 C382.205,217.54 382.125,217.74 382.045,217.94 Z M377.445,215.44 C376.525,215.44 375.725,215.9 375.245,216.64 L379.485,216.64 C379.085,215.88 378.345,215.44 377.445,215.44 Z" id="uniuniunicode"></path>
        </g>
    </g>
</svg>