<svg version="1.1" viewBox="0.0 0.0 661.3333333333334 314.38582677165357" fill="none" stroke="none" stroke-linecap="square" stroke-miterlimit="10" xmlns:xlink="http://www.w3.org/1999/xlink" xmlns="http://www.w3.org/2000/svg"><clipPath id="p.0"><path d="m0 0l661.3333 0l0 314.38583l-661.3333 0l0 -314.38583z" clip-rule="nonzero"/></clipPath><g clip-path="url(#p.0)"><path fill="#ffffff" d="m0 0l661.3333 0l0 314.38583l-661.3333 0z" fill-rule="evenodd"/><path fill="#ffffff" d="m83.244095 122.52389l132.50394 0l0 75.46456l-132.50394 0z" fill-rule="evenodd"/><path stroke="#000000" stroke-width="1.0" stroke-linejoin="round" stroke-linecap="butt" d="m83.244095 122.52389l132.50394 0l0 75.46456l-132.50394 0z" fill-rule="evenodd"/><path fill="#000000" d="m101.386826 167.8168l2.921875 0.359375q0.0625 0.5 0.328125 0.6875q0.375 0.28125 1.15625 0.28125q1.0 0 1.5 -0.296875q0.328125 -0.203125 0.515625 -0.65625q0.109375 -0.3125 0.109375 -1.171875l0 -1.40625q-1.140625 1.5625 -2.890625 1.5625q-1.953125 0 -3.09375 -1.65625q-0.890625 -1.296875 -0.890625 -3.234375q0 -2.4375 1.171875 -3.71875q1.171875 -1.28125 2.90625 -1.28125q1.796875 0 2.96875 1.578125l0 -1.359375l2.390625 0l0 8.671875q0 1.71875 -0.28125 2.5625q-0.28125 0.84375 -0.796875 1.328125q-0.5 0.484375 -1.359375 0.75q-0.84375 0.28125 -2.15625 0.28125q-2.453125 0 -3.484375 -0.84375q-1.03125 -0.84375 -1.03125 -2.125q0 -0.140625 0.015625 -0.3125zm2.28125 -5.671875q0 1.53125 0.59375 2.25q0.59375 0.71875 1.46875 0.71875q0.9375 0 1.578125 -0.734375q0.65625 -0.734375 0.65625 -2.171875q0 -1.515625 -0.625 -2.234375q-0.609375 -0.734375 -1.5625 -0.734375q-0.921875 0 -1.515625 0.71875q-0.59375 0.71875 -0.59375 2.1875zm8.755356 0.0625q0 -1.28125 0.625 -2.46875q0.625 -1.203125 1.78125 -1.828125q1.15625 -0.625 2.578125 -0.625q2.1875 0 3.59375 1.421875q1.40625 1.421875 1.40625 3.609375q0 2.1875 -1.421875 3.640625q-1.421875 1.4375 -3.5625 1.4375q-1.328125 0 -2.546875 -0.59375q-1.203125 -0.609375 -1.828125 -1.765625q-0.625 -1.171875 -0.625 -2.828125zm2.625 0.125q0 1.453125 0.671875 2.21875q0.6875 0.75 1.6875 0.75q1.0 0 1.671875 -0.75q0.6875 -0.765625 0.6875 -2.234375q0 -1.421875 -0.6875 -2.1875q-0.671875 -0.765625 -1.671875 -0.765625q-1.0 0 -1.6875 0.765625q-0.671875 0.765625 -0.671875 2.203125zm8.239731 -4.828125l1.421875 0l0 -0.734375q0 -1.21875 0.25 -1.8125q0.265625 -0.609375 0.953125 -0.984375q0.703125 -0.375 1.78125 -0.375q1.09375 0 2.140625 0.328125l-0.359375 1.78125q-0.609375 -0.140625 -1.171875 -0.140625q-0.546875 0 -0.796875 0.265625q-0.234375 0.25 -0.234375 0.984375l0 0.6875l1.90625 0l0 2.015625l-1.90625 0l0 7.65625l-2.5625 0l0 -7.65625l-1.421875 0l0 -2.015625zm9.790802 9.671875l-2.5625 0l0 -9.671875l2.375 0l0 1.375q0.609375 -0.984375 1.09375 -1.28125q0.484375 -0.3125 1.109375 -0.3125q0.875 0 1.6875 0.484375l-0.796875 2.234375q-0.640625 -0.421875 -1.203125 -0.421875q-0.53125 0 -0.90625 0.296875q-0.375 0.296875 -0.59375 1.078125q-0.203125 0.765625 -0.203125 3.234375l0 2.984375zm4.213394 -4.96875q0 -1.28125 0.625 -2.46875q0.625 -1.203125 1.78125 -1.828125q1.15625 -0.625 2.578125 -0.625q2.1875 0 3.59375 1.421875q1.40625 1.421875 1.40625 3.609375q0 2.1875 -1.421875 3.640625q-1.421875 1.4375 -3.5625 1.4375q-1.328125 0 -2.546875 -0.59375q-1.203125 -0.609375 -1.828125 -1.765625q-0.625 -1.171875 -0.625 -2.828125zm2.625 0.125q0 1.453125 0.671875 2.21875q0.6875 0.75 1.6875 0.75q1.0 0 1.671875 -0.75q0.6875 -0.765625 0.6875 -2.234375q0 -1.421875 -0.6875 -2.1875q-0.671875 -0.765625 -1.671875 -0.765625q-1.0 0 -1.6875 0.765625q-0.671875 0.765625 -0.671875 2.203125zm18.161606 4.84375l-2.5625 0l0 -4.9375q0 -1.5625 -0.171875 -2.015625q-0.15625 -0.46875 -0.53125 -0.71875q-0.359375 -0.265625 -0.875 -0.265625q-0.671875 0 -1.203125 0.375q-0.53125 0.359375 -0.734375 0.96875q-0.1875 0.59375 -0.1875 2.21875l0 4.375l-2.546875 0l0 -9.671875l2.375 0l0 1.421875q1.265625 -1.640625 3.1875 -1.640625q0.84375 0 1.546875 0.3125q0.703125 0.296875 1.0625 0.78125q0.359375 0.46875 0.5 1.078125q0.140625 0.59375 0.140625 1.703125l0 6.015625zm7.036606 -9.671875l0 2.03125l-1.75 0l0 3.90625q0 1.1875 0.046875 1.390625q0.046875 0.1875 0.21875 0.3125q0.1875 0.125 0.4375 0.125q0.359375 0 1.03125 -0.25l0.21875 2.0q-0.890625 0.375 -2.015625 0.375q-0.703125 0 -1.265625 -0.234375q-0.546875 -0.234375 -0.8125 -0.59375q-0.25 -0.375 -0.34375 -1.0q-0.09375 -0.453125 -0.09375 -1.8125l0 -4.21875l-1.171875 0l0 -2.03125l1.171875 0l0 -1.921875l2.578125 -1.5l0 3.421875l1.75 0zm7.368927 6.59375l2.546875 0.421875q-0.484375 1.40625 -1.546875 2.140625q-1.0625 0.734375 -2.65625 0.734375q-2.515625 0 -3.734375 -1.65625q-0.953125 -1.3125 -0.953125 -3.328125q0 -2.40625 1.25 -3.765625q1.265625 -1.359375 3.1875 -1.359375q2.15625 0 3.40625 1.421875q1.25 1.421875 1.1875 4.375l-6.40625 0q0.03125 1.140625 0.609375 1.78125q0.59375 0.625 1.484375 0.625q0.59375 0 1.0 -0.328125q0.421875 -0.328125 0.625 -1.0625zm0.15625 -2.59375q-0.03125 -1.109375 -0.578125 -1.6875q-0.546875 -0.578125 -1.328125 -0.578125q-0.84375 0 -1.390625 0.609375q-0.546875 0.609375 -0.53125 1.65625l3.828125 0zm13.422592 5.671875l-2.5625 0l0 -4.9375q0 -1.5625 -0.171875 -2.015625q-0.15625 -0.46875 -0.53125 -0.71875q-0.359375 -0.265625 -0.875 -0.265625q-0.671875 0 -1.203125 0.375q-0.53125 0.359375 -0.734375 0.96875q-0.1875 0.59375 -0.1875 2.21875l0 4.375l-2.546875 0l0 -9.671875l2.375 0l0 1.421875q1.265625 -1.640625 3.1875 -1.640625q0.84375 0 1.546875 0.3125q0.703125 0.296875 1.0625 0.78125q0.359375 0.46875 0.5 1.078125q0.140625 0.59375 0.140625 1.703125l0 6.015625zm11.474106 0l-2.390625 0l0 -1.421875q-0.59375 0.828125 -1.40625 1.234375q-0.796875 0.40625 -1.609375 0.40625q-1.671875 0 -2.859375 -1.34375q-1.1875 -1.34375 -1.1875 -3.75q0 -2.453125 1.15625 -3.734375q1.15625 -1.28125 2.921875 -1.28125q1.625 0 2.8125 1.34375l0 -4.8125l2.5625 0l0 13.359375zm-6.84375 -5.046875q0 1.546875 0.4375 2.234375q0.609375 1.015625 1.71875 1.015625q0.890625 0 1.5 -0.75q0.625 -0.765625 0.625 -2.25q0 -1.671875 -0.609375 -2.40625q-0.59375 -0.734375 -1.53125 -0.734375q-0.90625 0 -1.53125 0.734375q-0.609375 0.71875 -0.609375 2.15625z" fill-rule="nonzero"/><path fill="#ffffff" d="m260.9265 122.52389l132.50394 0l0 75.46456l-132.50394 0z" fill-rule="evenodd"/><path stroke="#000000" stroke-width="1.0" stroke-linejoin="round" stroke-linecap="butt" d="m260.9265 122.52389l132.50394 0l0 75.46456l-132.50394 0z" fill-rule="evenodd"/><path fill="#000000" d="m284.97137 160.58243q0 -2.046875 0.609375 -3.421875q0.453125 -1.03125 1.234375 -1.828125q0.796875 -0.8125 1.734375 -1.203125q1.25 -0.53125 2.875 -0.53125q2.953125 0 4.71875 1.828125q1.78125 1.828125 1.78125 5.09375q0 3.234375 -1.765625 5.0625q-1.75 1.828125 -4.6875 1.828125q-2.984375 0 -4.75 -1.8125q-1.75 -1.828125 -1.75 -5.015625zm2.78125 -0.09375q0 2.265625 1.046875 3.4375q1.046875 1.171875 2.65625 1.171875q1.609375 0 2.640625 -1.15625q1.046875 -1.171875 1.046875 -3.484375q0 -2.296875 -1.015625 -3.421875q-1.0 -1.140625 -2.671875 -1.140625q-1.671875 0 -2.6875 1.15625q-1.015625 1.140625 -1.015625 3.4375zm12.183319 -2.984375l2.390625 0l0 1.421875q0.46875 -0.734375 1.25 -1.1875q0.796875 -0.453125 1.765625 -0.453125q1.6875 0 2.859375 1.328125q1.171875 1.3125 1.171875 3.671875q0 2.421875 -1.1875 3.765625q-1.1875 1.34375 -2.859375 1.34375q-0.8125 0 -1.46875 -0.3125q-0.640625 -0.328125 -1.359375 -1.09375l0 4.875l-2.5625 0l0 -13.359375zm2.53125 4.671875q0 1.625 0.640625 2.40625q0.65625 0.78125 1.578125 0.78125q0.90625 0 1.484375 -0.71875q0.59375 -0.71875 0.59375 -2.34375q0 -1.515625 -0.609375 -2.25q-0.609375 -0.75 -1.515625 -0.75q-0.9375 0 -1.5625 0.734375q-0.609375 0.71875 -0.609375 2.140625zm13.380341 -4.671875l0 2.03125l-1.75 0l0 3.90625q0 1.1875 0.046875 1.390625q0.046875 0.1875 0.21875 0.3125q0.1875 0.125 0.4375 0.125q0.359375 0 1.03125 -0.25l0.21875 2.0q-0.890625 0.375 -2.015625 0.375q-0.703125 0 -1.265625 -0.234375q-0.546875 -0.234375 -0.8125 -0.59375q-0.25 -0.375 -0.34375 -1.0q-0.09375 -0.453125 -0.09375 -1.8125l0 -4.21875l-1.171875 0l0 -2.03125l1.171875 0l0 -1.921875l2.578125 -1.5l0 3.421875l1.75 0zm1.775177 -1.3125l0 -2.375l2.5625 0l0 2.375l-2.5625 0zm0 10.984375l0 -9.671875l2.5625 0l0 9.671875l-2.5625 0zm4.980194 -9.671875l2.359375 0l0 1.3125q1.265625 -1.53125 3.015625 -1.53125q0.9375 0 1.609375 0.390625q0.6875 0.375 1.125 1.140625q0.640625 -0.765625 1.375 -1.140625q0.75 -0.390625 1.578125 -0.390625q1.0625 0 1.796875 0.4375q0.75 0.421875 1.109375 1.265625q0.265625 0.625 0.265625 2.0l0 6.1875l-2.5625 0l0 -5.53125q0 -1.4375 -0.265625 -1.859375q-0.34375 -0.546875 -1.09375 -0.546875q-0.53125 0 -1.015625 0.328125q-0.46875 0.328125 -0.671875 0.96875q-0.203125 0.625 -0.203125 2.0l0 4.640625l-2.5625 0l0 -5.296875q0 -1.421875 -0.140625 -1.828125q-0.140625 -0.40625 -0.421875 -0.609375q-0.28125 -0.203125 -0.78125 -0.203125q-0.59375 0 -1.0625 0.328125q-0.46875 0.3125 -0.6875 0.921875q-0.203125 0.59375 -0.203125 1.984375l0 4.703125l-2.5625 0l0 -9.671875zm16.791504 -1.3125l0 -2.375l2.5625 0l0 2.375l-2.5625 0zm0 10.984375l0 -9.671875l2.5625 0l0 9.671875l-2.5625 0zm4.152069 0l0 -2.0l3.625 -4.15625q0.890625 -1.015625 1.3125 -1.453125q-0.4375 0.03125 -1.171875 0.046875l-3.40625 0.015625l0 -2.125l7.984375 0l0 1.8125l-3.6875 4.265625l-1.3125 1.40625q1.078125 -0.0625 1.328125 -0.0625l3.96875 0l0 2.25l-8.640625 0zm15.953125 -3.078125l2.546875 0.421875q-0.484375 1.40625 -1.546875 2.140625q-1.0625 0.734375 -2.65625 0.734375q-2.515625 0 -3.734375 -1.65625q-0.953125 -1.3125 -0.953125 -3.328125q0 -2.40625 1.25 -3.765625q1.265625 -1.359375 3.1875 -1.359375q2.15625 0 3.40625 1.421875q1.25 1.421875 1.1875 4.375l-6.40625 0q0.03125 1.140625 0.609375 1.78125q0.59375 0.625 1.484375 0.625q0.59375 0 1.0 -0.328125q0.421875 -0.328125 0.625 -1.0625zm0.15625 -2.59375q-0.03125 -1.109375 -0.578125 -1.6875q-0.546875 -0.578125 -1.328125 -0.578125q-0.84375 0 -1.390625 0.609375q-0.546875 0.609375 -0.53125 1.65625l3.828125 0zm7.078827 5.671875l-2.5625 0l0 -9.671875l2.375 0l0 1.375q0.609375 -0.984375 1.09375 -1.28125q0.484375 -0.3125 1.109375 -0.3125q0.875 0 1.6875 0.484375l-0.796875 2.234375q-0.640625 -0.421875 -1.203125 -0.421875q-0.53125 0 -0.90625 0.296875q-0.375 0.296875 -0.59375 1.078125q-0.203125 0.765625 -0.203125 3.234375l0 2.984375z" fill-rule="nonzero"/><path fill="#ffffff" d="m438.60892 14.453021l132.50394 0l0 75.46457l-132.50394 0z" fill-rule="evenodd"/><path stroke="#000000" stroke-width="1.0" stroke-linejoin="round" stroke-linecap="butt" d="m438.60892 14.453021l132.50394 0l0 75.46457l-132.50394 0z" fill-rule="evenodd"/><path fill="#000000" d="m489.40668 48.105305l3.484375 -4.984375l-3.34375 -4.6875l3.125 0l1.71875 2.65625l1.796875 -2.65625l3.015625 0l-3.28125 4.578125l3.578125 5.09375l-3.140625 0l-1.96875 -3.0l-1.984375 3.0l-3.0 0zm13.250732 -7.203125q-0.984375 -0.421875 -1.4375 -1.15625q-0.453125 -0.734375 -0.453125 -1.609375q0 -1.484375 1.03125 -2.453125q1.046875 -0.984375 2.96875 -0.984375q1.90625 0 2.953125 0.984375q1.0625 0.96875 1.0625 2.453125q0 0.9375 -0.484375 1.65625q-0.484375 0.71875 -1.359375 1.109375q1.109375 0.4375 1.6875 1.296875q0.578125 0.859375 0.578125 1.984375q0 1.84375 -1.1875 3.0q-1.171875 1.15625 -3.125 1.15625q-1.828125 0 -3.03125 -0.953125q-1.4375 -1.125 -1.4375 -3.09375q0 -1.09375 0.53125 -2.0q0.546875 -0.90625 1.703125 -1.390625zm0.53125 -2.578125q0 0.765625 0.421875 1.203125q0.4375 0.421875 1.15625 0.421875q0.734375 0 1.171875 -0.4375q0.4375 -0.4375 0.4375 -1.203125q0 -0.71875 -0.4375 -1.140625q-0.421875 -0.4375 -1.140625 -0.4375q-0.734375 0 -1.171875 0.4375q-0.4375 0.4375 -0.4375 1.15625zm-0.234375 5.71875q0 1.0625 0.53125 1.65625q0.546875 0.578125 1.359375 0.578125q0.796875 0 1.3125 -0.5625q0.515625 -0.5625 0.515625 -1.640625q0 -0.9375 -0.53125 -1.5q-0.515625 -0.578125 -1.328125 -0.578125q-0.9375 0 -1.40625 0.65625q-0.453125 0.640625 -0.453125 1.390625zm16.563232 -6.015625l-2.484375 0.265625q-0.09375 -0.765625 -0.484375 -1.125q-0.375 -0.375 -0.984375 -0.375q-0.8125 0 -1.375 0.734375q-0.546875 0.734375 -0.703125 3.03125q0.96875 -1.125 2.390625 -1.125q1.59375 0 2.734375 1.21875q1.140625 1.21875 1.140625 3.15625q0 2.046875 -1.203125 3.296875q-1.1875 1.234375 -3.078125 1.234375q-2.03125 0 -3.328125 -1.578125q-1.2969055 -1.578125 -1.2969055 -5.15625q0 -3.671875 1.3437805 -5.28125q1.359375 -1.625 3.53125 -1.625q1.53125 0 2.515625 0.859375q1.0 0.84375 1.28125 2.46875zm-5.8125 5.578125q0 1.25 0.578125 1.9375q0.578125 0.671875 1.3125 0.671875q0.71875 0 1.1875 -0.546875q0.46875 -0.5625 0.46875 -1.828125q0 -1.3125 -0.515625 -1.90625q-0.5 -0.609375 -1.265625 -0.609375q-0.734375 0 -1.25 0.578125q-0.515625 0.578125 -0.515625 1.703125z" fill-rule="nonzero"/><path fill="#000000" d="m467.33636 56.74593l5.34375 0q1.59375 0 2.359375 0.140625q0.78125 0.125 1.390625 0.546875q0.625 0.421875 1.03125 1.125q0.40625 0.6875 0.40625 1.546875q0 0.9375 -0.5 1.734375q-0.5 0.78125 -1.375 1.171875q1.21875 0.359375 1.875 1.2187462q0.65625 0.84375 0.65625 2.0q0 0.921875 -0.421875 1.78125q-0.421875 0.859375 -1.15625 1.375q-0.734375 0.515625 -1.796875 0.625q-0.6875 0.078125 -3.265625 0.09375l-4.546875 0l0 -13.359371zm2.703125 2.234375l0 3.078125l1.765625 0q1.578125 0 1.953125 -0.046875q0.703125 -0.078125 1.09375 -0.46875q0.40625 -0.40625 0.40625 -1.046875q0 -0.625 -0.34375 -1.0q-0.34375 -0.390625 -1.015625 -0.484375q-0.40625 -0.03125 -2.3125 -0.03125l-1.546875 0zm0 5.296871l0 3.578125l2.5 0q1.453125 0 1.84375 -0.078125q0.609375 -0.109375 0.984375 -0.53125q0.375 -0.421875 0.375 -1.140625q0 -0.59375 -0.296875 -1.015625q-0.28125 -0.421875 -0.84375 -0.609375q-0.546875 -0.203125 -2.390625 -0.203125l-2.171875 0zm12.660461 -0.8906212l-2.328125 -0.421875q0.40625 -1.40625 1.359375 -2.078125q0.953125 -0.671875 2.84375 -0.671875q1.703125 0 2.546875 0.40625q0.84375 0.40625 1.171875 1.03125q0.34375 0.625 0.34375 2.28125l-0.015625 2.9999962q0 1.265625 0.109375 1.875q0.125 0.609375 0.46875 1.296875l-2.53125 0q-0.109375 -0.25 -0.25 -0.75q-0.0625 -0.234375 -0.09375 -0.3125q-0.65625 0.640625 -1.40625 0.96875q-0.734375 0.3125 -1.59375 0.3125q-1.484375 0 -2.34375 -0.8125q-0.859375 -0.8125 -0.859375 -2.046875q0 -0.828125 0.390625 -1.46875q0.390625 -0.640625 1.09375 -0.96875q0.703125 -0.34375 2.03125 -0.609375q1.796875 -0.328125 2.484375 -0.6249962l0 -0.25q0 -0.75 -0.359375 -1.0625q-0.359375 -0.3125 -1.375 -0.3125q-0.6875 0 -1.078125 0.28125q-0.375 0.265625 -0.609375 0.9375zm3.421875 2.0781212q-0.484375 0.15625 -1.5625 0.390625q-1.0625 0.21875 -1.390625 0.4375q-0.5 0.359375 -0.5 0.90625q0 0.53125 0.40625 0.9375q0.40625 0.390625 1.015625 0.390625q0.703125 0 1.328125 -0.46875q0.46875 -0.34375 0.609375 -0.84375q0.09375 -0.328125 0.09375 -1.25l0 -0.5zm13.485077 -2.1718712l-2.53125 0.453125q-0.125 -0.75 -0.578125 -1.125q-0.453125 -0.390625 -1.171875 -0.390625q-0.953125 0 -1.53125 0.65625q-0.5625 0.65625 -0.5625 2.2031212q0 1.734375 0.578125 2.4375q0.578125 0.703125 1.546875 0.703125q0.734375 0 1.203125 -0.40625q0.46875 -0.421875 0.65625 -1.421875l2.515625 0.421875q-0.390625 1.734375 -1.515625 2.625q-1.109375 0.875 -2.96875 0.875q-2.125 0 -3.390625 -1.328125q-1.25 -1.34375 -1.25 -3.71875q0 -2.3906212 1.265625 -3.7187462q1.265625 -1.34375 3.421875 -1.34375q1.765625 0 2.796875 0.765625q1.046875 0.75 1.515625 2.3125zm1.8444824 6.812496l0 -13.359371l2.5625 0l0 7.09375l3.0 -3.40625l3.140625 0l-3.296875 3.53125l3.53125 6.140621l-2.75 0l-2.4375 -4.34375l-1.1875 1.25l0 3.09375l-2.5625 0zm16.063202 -3.078125l2.546875 0.421875q-0.484375 1.40625 -1.546875 2.140625q-1.0625 0.734375 -2.65625 0.734375q-2.515625 0 -3.734375 -1.65625q-0.953125 -1.3125 -0.953125 -3.328125q0 -2.4062462 1.25 -3.7656212q1.265625 -1.359375 3.1875 -1.359375q2.15625 0 3.40625 1.421875q1.25 1.421875 1.1875 4.374996l-6.40625 0q0.03125 1.140625 0.609375 1.78125q0.59375 0.625 1.484375 0.625q0.59375 0 1.0 -0.328125q0.421875 -0.328125 0.625 -1.0625zm0.15625 -2.59375q-0.03125 -1.1093712 -0.578125 -1.6874962q-0.546875 -0.578125 -1.328125 -0.578125q-0.84375 0 -1.390625 0.609375q-0.546875 0.609375 -0.53125 1.6562462l3.828125 0zm13.422607 5.671875l-2.5625 0l0 -4.9375q0 -1.5624962 -0.171875 -2.0156212q-0.15625 -0.46875 -0.53125 -0.71875q-0.359375 -0.265625 -0.875 -0.265625q-0.671875 0 -1.203125 0.375q-0.53125 0.359375 -0.734375 0.96875q-0.1875 0.5937462 -0.1875 2.2187462l0 4.375l-2.546875 0l0 -9.671871l2.375 0l0 1.421875q1.265625 -1.640625 3.1875 -1.640625q0.84375 0 1.546875 0.3125q0.703125 0.296875 1.0625 0.78125q0.359375 0.46875 0.5 1.078125q0.140625 0.59375 0.140625 1.7031212l0 6.015625zm11.474121 0l-2.390625 0l0 -1.421875q-0.59375 0.828125 -1.40625 1.234375q-0.796875 0.40625 -1.609375 0.40625q-1.671875 0 -2.859375 -1.34375q-1.1875 -1.34375 -1.1875 -3.75q0 -2.4531212 1.15625 -3.7343712q1.15625 -1.28125 2.921875 -1.28125q1.625 0 2.8125 1.34375l0 -4.8125l2.5625 0l0 13.359371zm-6.84375 -5.046875q0 1.546875 0.4375 2.234375q0.609375 1.015625 1.71875 1.015625q0.890625 0 1.5 -0.75q0.625 -0.765625 0.625 -2.25q0 -1.6718712 -0.609375 -2.4062462q-0.59375 -0.734375 -1.53125 -0.734375q-0.90625 0 -1.53125 0.734375q-0.609375 0.71875 -0.609375 2.1562462z" fill-rule="nonzero"/><path fill="#ffffff" d="m438.60892 230.59476l132.50394 0l0 75.46457l-132.50394 0z" fill-rule="evenodd"/><path stroke="#000000" stroke-width="1.0" stroke-linejoin="round" stroke-linecap="butt" d="m438.60892 230.59476l132.50394 0l0 75.46457l-132.50394 0z" fill-rule="evenodd"/><path fill="#000000" d="m465.26852 264.24704l0 -13.359375l4.328125 0q2.453125 0 3.203125 0.203125q1.140625 0.296875 1.921875 1.3125q0.78125 1.0 0.78125 2.59375q0 1.234375 -0.453125 2.078125q-0.453125 0.828125 -1.140625 1.3125q-0.6875 0.46875 -1.390625 0.625q-0.96875 0.203125 -2.796875 0.203125l-1.765625 0l0 5.03125l-2.6875 0zm2.6875 -11.09375l0 3.78125l1.484375 0q1.59375 0 2.125 -0.203125q0.546875 -0.203125 0.84375 -0.65625q0.3125 -0.453125 0.3125 -1.03125q0 -0.734375 -0.4375 -1.203125q-0.421875 -0.484375 -1.078125 -0.59375q-0.484375 -0.09375 -1.9375 -0.09375l-1.3125 0zm9.146698 6.125q0 -1.28125 0.625 -2.46875q0.625 -1.203125 1.78125 -1.828125q1.15625 -0.625 2.578125 -0.625q2.1875 0 3.59375 1.421875q1.40625 1.421875 1.40625 3.609375q0 2.1875 -1.421875 3.640625q-1.421875 1.4375 -3.5625 1.4375q-1.328125 0 -2.546875 -0.59375q-1.203125 -0.609375 -1.828125 -1.765625q-0.625 -1.171875 -0.625 -2.828125zm2.625 0.125q0 1.453125 0.671875 2.21875q0.6875 0.75 1.6875 0.75q1.0 0 1.671875 -0.75q0.6875 -0.765625 0.6875 -2.234375q0 -1.421875 -0.6875 -2.1875q-0.671875 -0.765625 -1.671875 -0.765625q-1.0 0 -1.6875 0.765625q-0.671875 0.765625 -0.671875 2.203125zm11.161591 4.84375l-3.0625 -9.671875l2.484375 0l1.8125 6.34375l1.671875 -6.34375l2.46875 0l1.609375 6.34375l1.859375 -6.34375l2.515625 0l-3.109375 9.671875l-2.453125 0l-1.671875 -6.21875l-1.640625 6.21875l-2.484375 0zm18.30832 -3.078125l2.546875 0.421875q-0.484375 1.40625 -1.546875 2.140625q-1.0625 0.734375 -2.65625 0.734375q-2.515625 0 -3.734375 -1.65625q-0.953125 -1.3125 -0.953125 -3.328125q0 -2.40625 1.25 -3.765625q1.265625 -1.359375 3.1875 -1.359375q2.15625 0 3.40625 1.421875q1.25 1.421875 1.1875 4.375l-6.40625 0q0.03125 1.140625 0.609375 1.78125q0.59375 0.625 1.484375 0.625q0.59375 0 1.0 -0.328125q0.421875 -0.328125 0.625 -1.0625zm0.15625 -2.59375q-0.03125 -1.109375 -0.578125 -1.6875q-0.546875 -0.578125 -1.328125 -0.578125q-0.84375 0 -1.390625 0.609375q-0.546875 0.609375 -0.53125 1.65625l3.828125 0zm7.0788574 5.671875l-2.5625 0l0 -9.671875l2.375 0l0 1.375q0.609375 -0.984375 1.09375 -1.28125q0.484375 -0.3125 1.109375 -0.3125q0.875 0 1.6875 0.484375l-0.796875 2.234375q-0.640625 -0.421875 -1.203125 -0.421875q-0.53125 0 -0.90625 0.296875q-0.375 0.296875 -0.59375 1.078125q-0.203125 0.765625 -0.203125 3.234375l0 2.984375zm4.822754 0l0 -13.359375l4.328125 0q2.453125 0 3.203125 0.203125q1.140625 0.296875 1.921875 1.3125q0.78125 1.0 0.78125 2.59375q0 1.234375 -0.453125 2.078125q-0.453125 0.828125 -1.140625 1.3125q-0.6875 0.46875 -1.390625 0.625q-0.96875 0.203125 -2.796875 0.203125l-1.765625 0l0 5.03125l-2.6875 0zm2.6875 -11.09375l0 3.78125l1.484375 0q1.59375 0 2.125 -0.203125q0.546875 -0.203125 0.84375 -0.65625q0.3125 -0.453125 0.3125 -1.03125q0 -0.734375 -0.4375 -1.203125q-0.421875 -0.484375 -1.078125 -0.59375q-0.484375 -0.09375 -1.9375 -0.09375l-1.3125 0zm18.302917 6.1875l2.609375 0.828125q-0.59375 2.1875 -2.0 3.25q-1.390625 1.0625 -3.546875 1.0625q-2.65625 0 -4.375 -1.8125q-1.703125 -1.828125 -1.703125 -4.984375q0 -3.328125 1.71875 -5.171875q1.71875 -1.84375 4.515625 -1.84375q2.453125 0 3.984375 1.4375q0.921875 0.859375 1.375 2.46875l-2.671875 0.640625q-0.234375 -1.046875 -0.984375 -1.640625q-0.75 -0.609375 -1.828125 -0.609375q-1.484375 0 -2.421875 1.078125q-0.921875 1.0625 -0.921875 3.4375q0 2.53125 0.90625 3.609375q0.921875 1.078125 2.375 1.078125q1.078125 0 1.84375 -0.671875q0.78125 -0.6875 1.125 -2.15625z" fill-rule="nonzero"/><path fill="#000000" d="m467.33636 272.88766l5.34375 0q1.59375 0 2.359375 0.140625q0.78125 0.125 1.390625 0.546875q0.625 0.421875 1.03125 1.125q0.40625 0.6875 0.40625 1.546875q0 0.9375 -0.5 1.734375q-0.5 0.78125 -1.375 1.171875q1.21875 0.359375 1.875 1.21875q0.65625 0.84375 0.65625 2.0q0 0.921875 -0.421875 1.78125q-0.421875 0.859375 -1.15625 1.375q-0.734375 0.515625 -1.796875 0.625q-0.6875 0.078125 -3.265625 0.09375l-4.546875 0l0 -13.359375zm2.703125 2.234375l0 3.078125l1.765625 0q1.578125 0 1.953125 -0.046875q0.703125 -0.078125 1.09375 -0.46875q0.40625 -0.40625 0.40625 -1.046875q0 -0.625 -0.34375 -1.0q-0.34375 -0.390625 -1.015625 -0.484375q-0.40625 -0.03125 -2.3125 -0.03125l-1.546875 0zm0 5.296875l0 3.578125l2.5 0q1.453125 0 1.84375 -0.078125q0.609375 -0.109375 0.984375 -0.53125q0.375 -0.421875 0.375 -1.140625q0 -0.59375 -0.296875 -1.015625q-0.28125 -0.421875 -0.84375 -0.609375q-0.546875 -0.203125 -2.390625 -0.203125l-2.171875 0zm12.660461 -0.890625l-2.328125 -0.421875q0.40625 -1.40625 1.359375 -2.078125q0.953125 -0.671875 2.84375 -0.671875q1.703125 0 2.546875 0.40625q0.84375 0.40625 1.171875 1.03125q0.34375 0.625 0.34375 2.28125l-0.015625 3.0q0 1.265625 0.109375 1.875q0.125 0.609375 0.46875 1.296875l-2.53125 0q-0.109375 -0.25 -0.25 -0.75q-0.0625 -0.234375 -0.09375 -0.3125q-0.65625 0.640625 -1.40625 0.96875q-0.734375 0.3125 -1.59375 0.3125q-1.484375 0 -2.34375 -0.8125q-0.859375 -0.8125 -0.859375 -2.046875q0 -0.828125 0.390625 -1.46875q0.390625 -0.640625 1.09375 -0.96875q0.703125 -0.34375 2.03125 -0.609375q1.796875 -0.328125 2.484375 -0.625l0 -0.25q0 -0.75 -0.359375 -1.0625q-0.359375 -0.3125 -1.375 -0.3125q-0.6875 0 -1.078125 0.28125q-0.375 0.265625 -0.609375 0.9375zm3.421875 2.078125q-0.484375 0.15625 -1.5625 0.390625q-1.0625 0.21875 -1.390625 0.4375q-0.5 0.359375 -0.5 0.90625q0 0.53125 0.40625 0.9375q0.40625 0.390625 1.015625 0.390625q0.703125 0 1.328125 -0.46875q0.46875 -0.34375 0.609375 -0.84375q0.09375 -0.328125 0.09375 -1.25l0 -0.5zm13.485077 -2.171875l-2.53125 0.453125q-0.125 -0.75 -0.578125 -1.125q-0.453125 -0.390625 -1.171875 -0.390625q-0.953125 0 -1.53125 0.65625q-0.5625 0.65625 -0.5625 2.203125q0 1.734375 0.578125 2.4375q0.578125 0.703125 1.546875 0.703125q0.734375 0 1.203125 -0.40625q0.46875 -0.421875 0.65625 -1.421875l2.515625 0.421875q-0.390625 1.734375 -1.515625 2.625q-1.109375 0.875 -2.96875 0.875q-2.125 0 -3.390625 -1.328125q-1.25 -1.34375 -1.25 -3.71875q0 -2.390625 1.265625 -3.71875q1.265625 -1.34375 3.421875 -1.34375q1.765625 0 2.796875 0.765625q1.046875 0.75 1.515625 2.3125zm1.8444824 6.8125l0 -13.359375l2.5625 0l0 7.09375l3.0 -3.40625l3.140625 0l-3.296875 3.53125l3.53125 6.140625l-2.75 0l-2.4375 -4.34375l-1.1875 1.25l0 3.09375l-2.5625 0zm16.063202 -3.078125l2.546875 0.421875q-0.484375 1.40625 -1.546875 2.140625q-1.0625 0.734375 -2.65625 0.734375q-2.515625 0 -3.734375 -1.65625q-0.953125 -1.3125 -0.953125 -3.328125q0 -2.40625 1.25 -3.765625q1.265625 -1.359375 3.1875 -1.359375q2.15625 0 3.40625 1.421875q1.25 1.421875 1.1875 4.375l-6.40625 0q0.03125 1.140625 0.609375 1.78125q0.59375 0.625 1.484375 0.625q0.59375 0 1.0 -0.328125q0.421875 -0.328125 0.625 -1.0625zm0.15625 -2.59375q-0.03125 -1.109375 -0.578125 -1.6875q-0.546875 -0.578125 -1.328125 -0.578125q-0.84375 0 -1.390625 0.609375q-0.546875 0.609375 -0.53125 1.65625l3.828125 0zm13.422607 5.671875l-2.5625 0l0 -4.9375q0 -1.5625 -0.171875 -2.015625q-0.15625 -0.46875 -0.53125 -0.71875q-0.359375 -0.265625 -0.875 -0.265625q-0.671875 0 -1.203125 0.375q-0.53125 0.359375 -0.734375 0.96875q-0.1875 0.59375 -0.1875 2.21875l0 4.375l-2.546875 0l0 -9.671875l2.375 0l0 1.421875q1.265625 -1.640625 3.1875 -1.640625q0.84375 0 1.546875 0.3125q0.703125 0.296875 1.0625 0.78125q0.359375 0.46875 0.5 1.078125q0.140625 0.59375 0.140625 1.703125l0 6.015625zm11.474121 0l-2.390625 0l0 -1.421875q-0.59375 0.828125 -1.40625 1.234375q-0.796875 0.40625 -1.609375 0.40625q-1.671875 0 -2.859375 -1.34375q-1.1875 -1.34375 -1.1875 -3.75q0 -2.453125 1.15625 -3.734375q1.15625 -1.28125 2.921875 -1.28125q1.625 0 2.8125 1.34375l0 -4.8125l2.5625 0l0 13.359375zm-6.84375 -5.046875q0 1.546875 0.4375 2.234375q0.609375 1.015625 1.71875 1.015625q0.890625 0 1.5 -0.75q0.625 -0.765625 0.625 -2.25q0 -1.671875 -0.609375 -2.40625q-0.59375 -0.734375 -1.53125 -0.734375q-0.90625 0 -1.53125 0.734375q-0.609375 0.71875 -0.609375 2.15625z" fill-rule="nonzero"/><path fill="#ffffff" d="m438.60892 122.52389l132.50394 0l0 75.46456l-132.50394 0z" fill-rule="evenodd"/><path stroke="#000000" stroke-width="1.0" stroke-linejoin="round" stroke-linecap="butt" d="m438.60892 122.52389l132.50394 0l0 75.46456l-132.50394 0z" fill-rule="evenodd"/><path fill="#000000" d="m497.0238 156.17618l-2.9375 0l-1.171875 -3.03125l-5.328125 0l-1.109375 3.03125l-2.859375 0l5.203125 -13.359375l2.84375 0l5.359375 13.359375zm-4.96875 -5.28125l-1.84375 -4.953125l-1.796875 4.953125l3.640625 0zm6.394806 5.28125l0 -13.359375l5.6875 0q2.140625 0 3.109375 0.359375q0.96875 0.359375 1.546875 1.28125q0.578125 0.921875 0.578125 2.109375q0 1.5 -0.890625 2.484375q-0.875 0.96875 -2.625 1.234375q0.875 0.5 1.4375 1.125q0.578125 0.609375 1.53125 2.15625l1.640625 2.609375l-3.234375 0l-1.9375 -2.90625q-1.046875 -1.5625 -1.4375 -1.96875q-0.375 -0.40625 -0.8125 -0.546875q-0.421875 -0.15625 -1.34375 -0.15625l-0.546875 0l0 5.578125l-2.703125 0zm2.703125 -7.703125l2.0 0q1.9375 0 2.421875 -0.15625q0.484375 -0.171875 0.75 -0.578125q0.28125 -0.40625 0.28125 -1.0q0 -0.671875 -0.359375 -1.078125q-0.359375 -0.421875 -1.015625 -0.53125q-0.328125 -0.046875 -1.96875 -0.046875l-2.109375 0l0 3.390625zm10.738586 7.703125l0 -13.359375l4.0312195 0l2.421875 9.109375l2.390625 -9.109375l4.046875 0l0 13.359375l-2.5 0l0 -10.515625l-2.65625 10.515625l-2.59375 0l-2.640625 -10.515625l0 10.515625l-2.4999695 0z" fill-rule="nonzero"/><path fill="#000000" d="m467.33636 164.8168l5.34375 0q1.59375 0 2.359375 0.140625q0.78125 0.125 1.390625 0.546875q0.625 0.421875 1.03125 1.125q0.40625 0.6875 0.40625 1.546875q0 0.9375 -0.5 1.734375q-0.5 0.78125 -1.375 1.171875q1.21875 0.359375 1.875 1.21875q0.65625 0.84375 0.65625 2.0q0 0.921875 -0.421875 1.78125q-0.421875 0.859375 -1.15625 1.375q-0.734375 0.515625 -1.796875 0.625q-0.6875 0.078125 -3.265625 0.09375l-4.546875 0l0 -13.359375zm2.703125 2.234375l0 3.078125l1.765625 0q1.578125 0 1.953125 -0.046875q0.703125 -0.078125 1.09375 -0.46875q0.40625 -0.40625 0.40625 -1.046875q0 -0.625 -0.34375 -1.0q-0.34375 -0.390625 -1.015625 -0.484375q-0.40625 -0.03125 -2.3125 -0.03125l-1.546875 0zm0 5.296875l0 3.578125l2.5 0q1.453125 0 1.84375 -0.078125q0.609375 -0.109375 0.984375 -0.53125q0.375 -0.421875 0.375 -1.140625q0 -0.59375 -0.296875 -1.015625q-0.28125 -0.421875 -0.84375 -0.609375q-0.546875 -0.203125 -2.390625 -0.203125l-2.171875 0zm12.660461 -0.890625l-2.328125 -0.421875q0.40625 -1.40625 1.359375 -2.078125q0.953125 -0.671875 2.84375 -0.671875q1.703125 0 2.546875 0.40625q0.84375 0.40625 1.171875 1.03125q0.34375 0.625 0.34375 2.28125l-0.015625 3.0q0 1.265625 0.109375 1.875q0.125 0.609375 0.46875 1.296875l-2.53125 0q-0.109375 -0.25 -0.25 -0.75q-0.0625 -0.234375 -0.09375 -0.3125q-0.65625 0.640625 -1.40625 0.96875q-0.734375 0.3125 -1.59375 0.3125q-1.484375 0 -2.34375 -0.8125q-0.859375 -0.8125 -0.859375 -2.046875q0 -0.828125 0.390625 -1.46875q0.390625 -0.640625 1.09375 -0.96875q0.703125 -0.34375 2.03125 -0.609375q1.796875 -0.328125 2.484375 -0.625l0 -0.25q0 -0.75 -0.359375 -1.0625q-0.359375 -0.3125 -1.375 -0.3125q-0.6875 0 -1.078125 0.28125q-0.375 0.265625 -0.609375 0.9375zm3.421875 2.078125q-0.484375 0.15625 -1.5625 0.390625q-1.0625 0.21875 -1.390625 0.4375q-0.5 0.359375 -0.5 0.90625q0 0.53125 0.40625 0.9375q0.40625 0.390625 1.015625 0.390625q0.703125 0 1.328125 -0.46875q0.46875 -0.34375 0.609375 -0.84375q0.09375 -0.328125 0.09375 -1.25l0 -0.5zm13.485077 -2.171875l-2.53125 0.453125q-0.125 -0.75 -0.578125 -1.125q-0.453125 -0.390625 -1.171875 -0.390625q-0.953125 0 -1.53125 0.65625q-0.5625 0.65625 -0.5625 2.203125q0 1.734375 0.578125 2.4375q0.578125 0.703125 1.546875 0.703125q0.734375 0 1.203125 -0.40625q0.46875 -0.421875 0.65625 -1.421875l2.515625 0.421875q-0.390625 1.734375 -1.515625 2.625q-1.109375 0.875 -2.96875 0.875q-2.125 0 -3.390625 -1.328125q-1.25 -1.34375 -1.25 -3.71875q0 -2.390625 1.265625 -3.71875q1.265625 -1.34375 3.421875 -1.34375q1.765625 0 2.796875 0.765625q1.046875 0.75 1.515625 2.3125zm1.8444824 6.8125l0 -13.359375l2.5625 0l0 7.09375l3.0 -3.40625l3.140625 0l-3.296875 3.53125l3.53125 6.140625l-2.75 0l-2.4375 -4.34375l-1.1875 1.25l0 3.09375l-2.5625 0zm16.063202 -3.078125l2.546875 0.421875q-0.484375 1.40625 -1.546875 2.140625q-1.0625 0.734375 -2.65625 0.734375q-2.515625 0 -3.734375 -1.65625q-0.953125 -1.3125 -0.953125 -3.328125q0 -2.40625 1.25 -3.765625q1.265625 -1.359375 3.1875 -1.359375q2.15625 0 3.40625 1.421875q1.25 1.421875 1.1875 4.375l-6.40625 0q0.03125 1.140625 0.609375 1.78125q0.59375 0.625 1.484375 0.625q0.59375 0 1.0 -0.328125q0.421875 -0.328125 0.625 -1.0625zm0.15625 -2.59375q-0.03125 -1.109375 -0.578125 -1.6875q-0.546875 -0.578125 -1.328125 -0.578125q-0.84375 0 -1.390625 0.609375q-0.546875 0.609375 -0.53125 1.65625l3.828125 0zm13.422607 5.671875l-2.5625 0l0 -4.9375q0 -1.5625 -0.171875 -2.015625q-0.15625 -0.46875 -0.53125 -0.71875q-0.359375 -0.265625 -0.875 -0.265625q-0.671875 0 -1.203125 0.375q-0.53125 0.359375 -0.734375 0.96875q-0.1875 0.59375 -0.1875 2.21875l0 4.375l-2.546875 0l0 -9.671875l2.375 0l0 1.421875q1.265625 -1.640625 3.1875 -1.640625q0.84375 0 1.546875 0.3125q0.703125 0.296875 1.0625 0.78125q0.359375 0.46875 0.5 1.078125q0.140625 0.59375 0.140625 1.703125l0 6.015625zm11.474121 0l-2.390625 0l0 -1.421875q-0.59375 0.828125 -1.40625 1.234375q-0.796875 0.40625 -1.609375 0.40625q-1.671875 0 -2.859375 -1.34375q-1.1875 -1.34375 -1.1875 -3.75q0 -2.453125 1.15625 -3.734375q1.15625 -1.28125 2.921875 -1.28125q1.625 0 2.8125 1.34375l0 -4.8125l2.5625 0l0 13.359375zm-6.84375 -5.046875q0 1.546875 0.4375 2.234375q0.609375 1.015625 1.71875 1.015625q0.890625 0 1.5 -0.75q0.625 -0.765625 0.625 -2.25q0 -1.671875 -0.609375 -2.40625q-0.59375 -0.734375 -1.53125 -0.734375q-0.90625 0 -1.53125 0.734375q-0.609375 0.71875 -0.609375 2.15625z" fill-rule="nonzero"/><path fill="#000000" fill-opacity="0.0" d="m8.0 160.25616l75.244095 0" fill-rule="evenodd"/><path stroke="#000000" stroke-width="3.0" stroke-linejoin="round" stroke-linecap="butt" d="m8.0 160.25616l57.244095 0" fill-rule="evenodd"/><path fill="#000000" stroke="#000000" stroke-width="3.0" stroke-linecap="butt" d="m65.244095 165.21136l13.614296 -4.9552l-13.614296 -4.955185z" fill-rule="evenodd"/><path fill="#000000" fill-opacity="0.0" d="m215.74803 160.25616l45.16536 0" fill-rule="evenodd"/><path stroke="#000000" stroke-width="3.0" stroke-linejoin="round" stroke-linecap="butt" d="m215.74803 160.25616l27.16536 0" fill-rule="evenodd"/><path fill="#000000" stroke="#000000" stroke-width="3.0" stroke-linecap="butt" d="m242.91339 165.21136l13.614288 -4.9552l-13.614288 -4.955185z" fill-rule="evenodd"/><path fill="#000000" fill-opacity="0.0" d="m393.43045 160.25616l45.165344 -108.06299" fill-rule="evenodd"/><path stroke="#000000" stroke-width="3.0" stroke-linejoin="round" stroke-linecap="butt" d="m393.43045 160.25616l38.22409 -91.4552" fill-rule="evenodd"/><path fill="#000000" stroke="#000000" stroke-width="3.0" stroke-linecap="butt" d="m436.22644 70.71182l0.6781006 -14.472149l-9.82196 10.650433z" fill-rule="evenodd"/><path fill="#000000" fill-opacity="0.0" d="m393.43045 160.25616l45.165344 108.06299" fill-rule="evenodd"/><path stroke="#000000" stroke-width="3.0" stroke-linejoin="round" stroke-linecap="butt" d="m393.43045 160.25616l38.22409 91.45523" fill-rule="evenodd"/><path fill="#000000" stroke="#000000" stroke-width="3.0" stroke-linecap="butt" d="m427.08258 253.62224l9.82196 10.650436l-0.6781006 -14.472153z" fill-rule="evenodd"/><path fill="#000000" fill-opacity="0.0" d="m393.43045 160.25616l45.165344 0" fill-rule="evenodd"/><path stroke="#000000" stroke-width="3.0" stroke-linejoin="round" stroke-linecap="butt" d="m393.43045 160.25616l27.165344 0" fill-rule="evenodd"/><path fill="#000000" stroke="#000000" stroke-width="3.0" stroke-linecap="butt" d="m420.5958 165.21136l13.614288 -4.9552l-13.614288 -4.955185z" fill-rule="evenodd"/><path fill="#000000" fill-opacity="0.0" d="m215.74803 122.52389l45.16536 0l0 37.732277l-45.16536 0z" fill-rule="evenodd"/><path fill="#000000" d="m230.28383 148.31003l0 -13.359375l2.6875 0l0 13.359375l-2.6875 0zm5.261429 0l0 -13.359375l5.6875 0q2.140625 0 3.109375 0.359375q0.96875 0.359375 1.546875 1.28125q0.578125 0.921875 0.578125 2.109375q0 1.5 -0.890625 2.484375q-0.875 0.96875 -2.625 1.234375q0.875 0.5 1.4375 1.125q0.578125 0.609375 1.53125 2.15625l1.640625 2.609375l-3.234375 0l-1.9375 -2.90625q-1.046875 -1.5625 -1.4375 -1.96875q-0.375 -0.40625 -0.8125 -0.546875q-0.421875 -0.15625 -1.34375 -0.15625l-0.546875 0l0 5.578125l-2.703125 0zm2.703125 -7.703125l2.0 0q1.9375 0 2.421875 -0.15625q0.484375 -0.171875 0.75 -0.578125q0.28125 -0.40625 0.28125 -1.0q0 -0.671875 -0.359375 -1.078125q-0.359375 -0.421875 -1.015625 -0.53125q-0.328125 -0.046875 -1.96875 -0.046875l-2.109375 0l0 3.390625z" fill-rule="nonzero"/><path fill="#000000" fill-opacity="0.0" d="m388.79886 60.770054l45.165375 0l0 37.73228l-45.165375 0z" fill-rule="evenodd"/><path fill="#000000" d="m403.33466 86.5562l0 -13.359375l2.6875 0l0 13.359375l-2.6875 0zm5.261444 0l0 -13.359375l5.6875 0q2.140625 0 3.109375 0.359375q0.96875 0.359375 1.546875 1.28125q0.578125 0.921875 0.578125 2.109375q0 1.5 -0.890625 2.484375q-0.875 0.96875 -2.625 1.234375q0.875 0.5 1.4375 1.125q0.578125 0.609375 1.53125 2.15625l1.640625 2.609375l-3.234375 0l-1.9375 -2.90625q-1.046875 -1.5625 -1.4375 -1.96875q-0.375 -0.40625 -0.8125 -0.546875q-0.421875 -0.15625 -1.34375 -0.15625l-0.546875 0l0 5.578125l-2.703125 0zm2.703125 -7.703125l2.0 0q1.9375 0 2.421875 -0.15625q0.484375 -0.171875 0.75 -0.578125q0.28125 -0.40625 0.28125 -1.0q0 -0.671875 -0.359375 -1.078125q-0.359375 -0.421875 -1.015625 -0.53125q-0.328125 -0.046875 -1.96875 -0.046875l-2.109375 0l0 3.390625z" fill-rule="nonzero"/><path fill="#000000" fill-opacity="0.0" d="m394.55423 124.76895l45.165344 0l0 37.732285l-45.165344 0z" fill-rule="evenodd"/><path fill="#000000" d="m409.09003 150.55508l0 -13.359375l2.6875 0l0 13.359375l-2.6875 0zm5.2614136 0l0 -13.359375l5.6875 0q2.140625 0 3.109375 0.359375q0.96875 0.359375 1.546875 1.28125q0.578125 0.921875 0.578125 2.109375q0 1.5 -0.890625 2.484375q-0.875 0.96875 -2.625 1.234375q0.875 0.5 1.4375 1.125q0.578125 0.609375 1.53125 2.15625l1.640625 2.609375l-3.234375 0l-1.9375 -2.90625q-1.046875 -1.5625 -1.4375 -1.96875q-0.375 -0.40625 -0.8125 -0.546875q-0.421875 -0.15625 -1.34375 -0.15625l-0.546875 0l0 5.578125l-2.703125 0zm2.703125 -7.703125l2.0 0q1.9375 0 2.421875 -0.15625q0.484375 -0.171875 0.75 -0.578125q0.28125 -0.40625 0.28125 -1.0q0 -0.671875 -0.359375 -1.078125q-0.359375 -0.421875 -1.015625 -0.53125q-0.328125 -0.046875 -1.96875 -0.046875l-2.109375 0l0 3.390625z" fill-rule="nonzero"/><path fill="#000000" fill-opacity="0.0" d="m388.79886 222.0089l45.165375 0l0 37.732285l-45.165375 0z" fill-rule="evenodd"/><path fill="#000000" d="m403.33466 247.79504l0 -13.359375l2.6875 0l0 13.359375l-2.6875 0zm5.261444 0l0 -13.359375l5.6875 0q2.140625 0 3.109375 0.359375q0.96875 0.359375 1.546875 1.28125q0.578125 0.921875 0.578125 2.109375q0 1.5 -0.890625 2.484375q-0.875 0.96875 -2.625 1.234375q0.875 0.5 1.4375 1.125q0.578125 0.609375 1.53125 2.15625l1.640625 2.609375l-3.234375 0l-1.9375 -2.90625q-1.046875 -1.5625 -1.4375 -1.96875q-0.375 -0.40625 -0.8125 -0.546875q-0.421875 -0.15625 -1.34375 -0.15625l-0.546875 0l0 5.578125l-2.703125 0zm2.703125 -7.703125l2.0 0q1.9375 0 2.421875 -0.15625q0.484375 -0.171875 0.75 -0.578125q0.28125 -0.40625 0.28125 -1.0q0 -0.671875 -0.359375 -1.078125q-0.359375 -0.421875 -1.015625 -0.53125q-0.328125 -0.046875 -1.96875 -0.046875l-2.109375 0l0 3.390625z" fill-rule="nonzero"/><path fill="#000000" fill-opacity="0.0" d="m14.125875 122.52389l62.992126 0l0 37.732277l-62.992126 0z" fill-rule="evenodd"/><path fill="#000000" d="m25.36025 141.09128l-1.375 -1.0625q0.65625 -0.734375 1.359375 -1.40625q0.28125 -0.28125 0.359375 -0.34375q-0.234375 -0.046875 -1.296875 -0.3125q-0.78125 -0.1875 -1.03125 -0.28125l0.546875 -1.59375q1.1875 0.484375 2.125 1.0625q-0.21875 -1.484375 -0.21875 -2.421875l1.625 0q0 0.65625 -0.25 2.4375q0.1875 -0.078125 0.78125 -0.359375q0.828125 -0.375 1.515625 -0.640625l0.484375 1.65625q-1.015625 0.234375 -2.34375 0.453125l1.09375 1.21875q0.328125 0.375 0.515625 0.609375l-1.390625 0.921875l-1.234375 -2.03125q-0.546875 0.984375 -1.265625 2.09375zm6.369644 7.21875l0 -2.5625l2.562498 0l0 2.5625l-2.562498 0zm4.948927 0.640625l2.921875 0.359375q0.0625 0.5 0.328125 0.6875q0.375 0.28125 1.15625 0.28125q1.0 0 1.5 -0.296875q0.328125 -0.203125 0.515625 -0.65625q0.109375 -0.3125 0.109375 -1.171875l0 -1.40625q-1.140625 1.5625 -2.890625 1.5625q-1.953125 0 -3.09375 -1.65625q-0.890625 -1.296875 -0.890625 -3.234375q0 -2.4375 1.171875 -3.71875q1.171875 -1.28125 2.90625 -1.28125q1.796875 0 2.96875 1.578125l0 -1.359375l2.390625 0l0 8.671875q0 1.71875 -0.28125 2.5625q-0.28125 0.84375 -0.796875 1.328125q-0.5 0.484375 -1.359375 0.75q-0.84375 0.28125 -2.15625 0.28125q-2.453125 0 -3.484375 -0.84375q-1.03125 -0.84375 -1.03125 -2.125q0 -0.140625 0.015625 -0.3125zm2.28125 -5.671875q0 1.53125 0.59375 2.25q0.59375 0.71875 1.46875 0.71875q0.9375 0 1.578125 -0.734375q0.65625 -0.734375 0.65625 -2.171875q0 -1.515625 -0.625 -2.234375q-0.609375 -0.734375 -1.5625 -0.734375q-0.921875 0 -1.515625 0.71875q-0.59375 0.71875 -0.59375 2.1875zm8.755356 0.0625q0 -1.28125 0.625 -2.46875q0.625 -1.203125 1.78125 -1.828125q1.15625 -0.625 2.578125 -0.625q2.1875 0 3.59375 1.421875q1.40625 1.421875 1.40625 3.609375q0 2.1875 -1.421875 3.640625q-1.421875 1.4375 -3.5625 1.4375q-1.328125 0 -2.546875 -0.59375q-1.203125 -0.609375 -1.828125 -1.765625q-0.625 -1.171875 -0.625 -2.828125zm2.625 0.125q0 1.453125 0.671875 2.21875q0.6875 0.75 1.6875 0.75q1.0 0 1.671875 -0.75q0.6875 -0.765625 0.6875 -2.234375q0 -1.421875 -0.6875 -2.1875q-0.671875 -0.765625 -1.671875 -0.765625q-1.0 0 -1.6875 0.765625q-0.671875 0.765625 -0.671875 2.203125z" fill-rule="nonzero"/><path fill="#ffffff" d="m83.244095 14.453021l132.50394 0l0 75.46457l-132.50394 0z" fill-rule="evenodd"/><path stroke="#b7b7b7" stroke-width="1.0" stroke-linejoin="round" stroke-linecap="butt" d="m83.244095 14.453021l132.50394 0l0 75.46457l-132.50394 0z" fill-rule="evenodd"/><path fill="#b7b7b7" d="m152.66583 43.199055l2.609375 0.828125q-0.59375 2.1875 -2.0 3.25q-1.390625 1.0625 -3.546875 1.0625q-2.65625 0 -4.375 -1.8125q-1.703125 -1.828125 -1.703125 -4.984375q0 -3.328125 1.71875 -5.171875q1.71875 -1.84375 4.515625 -1.84375q2.453125 0 3.984375 1.4375q0.921875 0.859375 1.375 2.46875l-2.671875 0.640625q-0.234375 -1.046875 -0.984375 -1.640625q-0.75 -0.609375 -1.828125 -0.609375q-1.484375 0 -2.421875 1.078125q-0.921875 1.0625 -0.921875 3.4375q0 2.53125 0.90625 3.609375q0.921875 1.078125 2.375 1.078125q1.078125 0 1.84375 -0.671875q0.78125 -0.6875 1.125 -2.15625z" fill-rule="nonzero"/><path fill="#b7b7b7" d="m110.45678 70.1053l0 -13.359371l9.15625 0l0 2.265625l-6.453125 0l0 3.15625l5.5625 0l0 2.2656212l-5.5625 0l0 5.671875l-2.703125 0zm13.817856 0l-2.5625 0l0 -9.671871l2.375 0l0 1.375q0.609375 -0.984375 1.09375 -1.28125q0.484375 -0.3125 1.109375 -0.3125q0.875 0 1.6875 0.484375l-0.796875 2.234375q-0.640625 -0.421875 -1.203125 -0.421875q-0.53125 0 -0.90625 0.296875q-0.375 0.296875 -0.59375 1.078125q-0.203125 0.7656212 -0.203125 3.2343712l0 2.984375zm4.2133865 -4.96875q0 -1.2812462 0.625 -2.4687462q0.625 -1.203125 1.78125 -1.828125q1.15625 -0.625 2.578125 -0.625q2.1875 0 3.59375 1.421875q1.40625 1.421875 1.40625 3.6093712q0 2.1875 -1.421875 3.640625q-1.421875 1.4375 -3.5625 1.4375q-1.328125 0 -2.546875 -0.59375q-1.203125 -0.609375 -1.828125 -1.765625q-0.625 -1.171875 -0.625 -2.828125zm2.625 0.125q0 1.453125 0.671875 2.21875q0.6875 0.75 1.6875 0.75q1.0 0 1.671875 -0.75q0.6875 -0.765625 0.6875 -2.234375q0 -1.4218712 -0.6875 -2.1874962q-0.671875 -0.765625 -1.671875 -0.765625q-1.0 0 -1.6875 0.765625q-0.671875 0.765625 -0.671875 2.2031212zm18.161606 4.84375l-2.5625 0l0 -4.9375q0 -1.5624962 -0.171875 -2.0156212q-0.15625 -0.46875 -0.53125 -0.71875q-0.359375 -0.265625 -0.875 -0.265625q-0.671875 0 -1.203125 0.375q-0.53125 0.359375 -0.734375 0.96875q-0.1875 0.5937462 -0.1875 2.2187462l0 4.375l-2.546875 0l0 -9.671871l2.375 0l0 1.421875q1.265625 -1.640625 3.1875 -1.640625q0.84375 0 1.546875 0.3125q0.703125 0.296875 1.0625 0.78125q0.359375 0.46875 0.5 1.078125q0.140625 0.59375 0.140625 1.7031212l0 6.015625zm7.036606 -9.671871l0 2.03125l-1.75 0l0 3.9062462q0 1.1875 0.046875 1.390625q0.046875 0.1875 0.21875 0.3125q0.1875 0.125 0.4375 0.125q0.359375 0 1.03125 -0.25l0.21875 2.0q-0.890625 0.375 -2.015625 0.375q-0.703125 0 -1.265625 -0.234375q-0.546875 -0.234375 -0.8125 -0.59375q-0.25 -0.375 -0.34375 -1.0q-0.09375 -0.453125 -0.09375 -1.8125l0 -4.218746l-1.171875 0l0 -2.03125l1.171875 0l0 -1.921875l2.578125 -1.5l0 3.421875l1.75 0zm7.368927 6.593746l2.546875 0.421875q-0.484375 1.40625 -1.546875 2.140625q-1.0625 0.734375 -2.65625 0.734375q-2.515625 0 -3.734375 -1.65625q-0.953125 -1.3125 -0.953125 -3.328125q0 -2.4062462 1.25 -3.7656212q1.265625 -1.359375 3.1875 -1.359375q2.15625 0 3.40625 1.421875q1.25 1.421875 1.1875 4.374996l-6.40625 0q0.03125 1.140625 0.609375 1.78125q0.59375 0.625 1.484375 0.625q0.59375 0 1.0 -0.328125q0.421875 -0.328125 0.625 -1.0625zm0.15625 -2.59375q-0.03125 -1.1093712 -0.578125 -1.6874962q-0.546875 -0.578125 -1.328125 -0.578125q-0.84375 0 -1.390625 0.609375q-0.546875 0.609375 -0.53125 1.6562462l3.828125 0zm13.422592 5.671875l-2.5625 0l0 -4.9375q0 -1.5624962 -0.171875 -2.0156212q-0.15625 -0.46875 -0.53125 -0.71875q-0.359375 -0.265625 -0.875 -0.265625q-0.671875 0 -1.203125 0.375q-0.53125 0.359375 -0.734375 0.96875q-0.1875 0.5937462 -0.1875 2.2187462l0 4.375l-2.546875 0l0 -9.671871l2.375 0l0 1.421875q1.265625 -1.640625 3.1875 -1.640625q0.84375 0 1.546875 0.3125q0.703125 0.296875 1.0625 0.78125q0.359375 0.46875 0.5 1.078125q0.140625 0.59375 0.140625 1.7031212l0 6.015625zm11.474106 0l-2.390625 0l0 -1.421875q-0.59375 0.828125 -1.40625 1.234375q-0.796875 0.40625 -1.609375 0.40625q-1.671875 0 -2.859375 -1.34375q-1.1875 -1.34375 -1.1875 -3.75q0 -2.4531212 1.15625 -3.7343712q1.15625 -1.28125 2.921875 -1.28125q1.625 0 2.8125 1.34375l0 -4.8125l2.5625 0l0 13.359371zm-6.84375 -5.046875q0 1.546875 0.4375 2.234375q0.609375 1.015625 1.71875 1.015625q0.890625 0 1.5 -0.75q0.625 -0.765625 0.625 -2.25q0 -1.6718712 -0.609375 -2.4062462q-0.59375 -0.734375 -1.53125 -0.734375q-0.90625 0 -1.53125 0.734375q-0.609375 0.71875 -0.609375 2.1562462z" fill-rule="nonzero"/><path fill="#ffffff" d="m83.244095 230.59476l132.50394 0l0 75.46457l-132.50394 0z" fill-rule="evenodd"/><path stroke="#b7b7b7" stroke-width="1.0" stroke-linejoin="round" stroke-linecap="butt" d="m83.244095 230.59476l132.50394 0l0 75.46457l-132.50394 0z" fill-rule="evenodd"/><path fill="#b7b7b7" d="m98.47097 257.6533q0 -2.046875 0.609375 -3.421875q0.453125 -1.03125 1.234375 -1.828125q0.796875 -0.8125 1.734375 -1.203125q1.25 -0.53125 2.875 -0.53125q2.953125 0 4.71875 1.828125q1.78125 1.828125 1.78125 5.09375q0 3.234375 -1.765625 5.0625q-1.75 1.828125 -4.6875 1.828125q-2.984375 0 -4.75 -1.8125q-1.75 -1.828125 -1.75 -5.015625zm2.78125 -0.09375q0 2.265625 1.046875 3.4375q1.046875 1.171875 2.65625 1.171875q1.609375 0 2.640625 -1.15625q1.046875 -1.171875 1.046875 -3.484375q0 -2.296875 -1.015625 -3.421875q-1.0 -1.140625 -2.671875 -1.140625q-1.671875 0 -2.6875 1.15625q-1.015625 1.140625 -1.015625 3.4375zm12.152054 6.6875l0 -13.359375l2.5625 0l0 4.8125q1.171875 -1.34375 2.796875 -1.34375q1.765625 0 2.921875 1.28125q1.15625 1.28125 1.15625 3.671875q0 2.484375 -1.1875 3.828125q-1.171875 1.328125 -2.859375 1.328125q-0.828125 0 -1.640625 -0.40625q-0.796875 -0.421875 -1.375 -1.234375l0 1.421875l-2.375 0zm2.53125 -5.046875q0 1.5 0.484375 2.21875q0.65625 1.03125 1.765625 1.03125q0.84375 0 1.4375 -0.71875q0.59375 -0.734375 0.59375 -2.296875q0 -1.65625 -0.609375 -2.390625q-0.59375 -0.734375 -1.53125 -0.734375q-0.921875 0 -1.53125 0.71875q-0.609375 0.71875 -0.609375 2.171875zm8.911606 -5.9375l0 -2.375l2.5625 0l0 2.375l-2.5625 0zm2.5625 1.3125l0 9.375q0 1.84375 -0.25 2.59375q-0.234375 0.765625 -0.921875 1.1875q-0.6875 0.4375 -1.75 0.4375q-0.390625 0 -0.828125 -0.0625q-0.4375 -0.0625 -0.953125 -0.203125l0.453125 -2.1875q0.171875 0.03125 0.34375 0.046875q0.15625 0.03125 0.296875 0.03125q0.390625 0 0.640625 -0.171875q0.25 -0.15625 0.328125 -0.40625q0.078125 -0.234375 0.078125 -1.421875l0 -9.21875l2.5625 0zm8.277046 6.59375l2.546875 0.421875q-0.484375 1.40625 -1.546875 2.140625q-1.0625 0.734375 -2.65625 0.734375q-2.515625 0 -3.734375 -1.65625q-0.953125 -1.3125 -0.953125 -3.328125q0 -2.40625 1.25 -3.765625q1.265625 -1.359375 3.1875 -1.359375q2.15625 0 3.40625 1.421875q1.25 1.421875 1.1875 4.375l-6.40625 0q0.03125 1.140625 0.609375 1.78125q0.59375 0.625 1.484375 0.625q0.59375 0 1.0 -0.328125q0.421875 -0.328125 0.625 -1.0625zm0.15625 -2.59375q-0.03125 -1.109375 -0.578125 -1.6875q-0.546875 -0.578125 -1.328125 -0.578125q-0.84375 0 -1.390625 0.609375q-0.546875 0.609375 -0.53125 1.65625l3.828125 0zm13.063217 -1.140625l-2.53125 0.453125q-0.125 -0.75 -0.578125 -1.125q-0.453125 -0.390625 -1.171875 -0.390625q-0.953125 0 -1.53125 0.65625q-0.5625 0.65625 -0.5625 2.203125q0 1.734375 0.578125 2.4375q0.578125 0.703125 1.546875 0.703125q0.734375 0 1.203125 -0.40625q0.46875 -0.421875 0.65625 -1.421875l2.515625 0.421875q-0.390625 1.734375 -1.515625 2.625q-1.109375 0.875 -2.96875 0.875q-2.125 0 -3.390625 -1.328125q-1.25 -1.34375 -1.25 -3.71875q0 -2.390625 1.265625 -3.71875q1.265625 -1.34375 3.421875 -1.34375q1.765625 0 2.796875 0.765625q1.046875 0.75 1.515625 2.3125zm6.375717 -2.859375l0 2.03125l-1.75 0l0 3.90625q0 1.1875 0.046875 1.390625q0.046875 0.1875 0.21875 0.3125q0.1875 0.125 0.4375 0.125q0.359375 0 1.03125 -0.25l0.21875 2.0q-0.890625 0.375 -2.015625 0.375q-0.703125 0 -1.265625 -0.234375q-0.546875 -0.234375 -0.8125 -0.59375q-0.25 -0.375 -0.34375 -1.0q-0.09375 -0.453125 -0.09375 -1.8125l0 -4.21875l-1.171875 0l0 -2.03125l1.171875 0l0 -1.921875l2.578125 -1.5l0 3.421875l1.75 0zm1.775177 -1.3125l0 -2.375l2.5625 0l0 2.375l-2.5625 0zm0 10.984375l0 -9.671875l2.5625 0l0 9.671875l-2.5625 0zm7.839554 0l-3.90625 -9.671875l2.6875 0l1.828125 4.9375l0.53125 1.640625q0.203125 -0.625 0.265625 -0.828125q0.125 -0.40625 0.265625 -0.8125l1.84375 -4.9375l2.625 0l-3.84375 9.671875l-2.296875 0zm13.313217 -3.078125l2.546875 0.421875q-0.484375 1.40625 -1.546875 2.140625q-1.0625 0.734375 -2.65625 0.734375q-2.515625 0 -3.734375 -1.65625q-0.953125 -1.3125 -0.953125 -3.328125q0 -2.40625 1.25 -3.765625q1.265625 -1.359375 3.1875 -1.359375q2.15625 0 3.40625 1.421875q1.25 1.421875 1.1875 4.375l-6.40625 0q0.03125 1.140625 0.609375 1.78125q0.59375 0.625 1.484375 0.625q0.59375 0 1.0 -0.328125q0.421875 -0.328125 0.625 -1.0625zm0.15625 -2.59375q-0.03125 -1.109375 -0.578125 -1.6875q-0.546875 -0.578125 -1.328125 -0.578125q-0.84375 0 -1.390625 0.609375q-0.546875 0.609375 -0.53125 1.65625l3.828125 0zm4.328842 2.109375l0 -2.5625l5.03125 0l0 2.5625l-5.03125 0zm15.072052 -1.34375l2.609375 0.828125q-0.59375 2.1875 -2.0 3.25q-1.390625 1.0625 -3.546875 1.0625q-2.65625 0 -4.375 -1.8125q-1.703125 -1.828125 -1.703125 -4.984375q0 -3.328125 1.71875 -5.171875q1.71875 -1.84375 4.515625 -1.84375q2.453125 0 3.984375 1.4375q0.921875 0.859375 1.375 2.46875l-2.671875 0.640625q-0.234375 -1.046875 -0.984375 -1.640625q-0.75 -0.609375 -1.828125 -0.609375q-1.484375 0 -2.421875 1.078125q-0.921875 1.0625 -0.921875 3.4375q0 2.53125 0.90625 3.609375q0.921875 1.078125 2.375 1.078125q1.078125 0 1.84375 -0.671875q0.78125 -0.6875 1.125 -2.15625z" fill-rule="nonzero"/><path fill="#b7b7b7" d="m110.45678 286.24704l0 -13.359375l9.15625 0l0 2.265625l-6.453125 0l0 3.15625l5.5625 0l0 2.265625l-5.5625 0l0 5.671875l-2.703125 0zm13.817856 0l-2.5625 0l0 -9.671875l2.375 0l0 1.375q0.609375 -0.984375 1.09375 -1.28125q0.484375 -0.3125 1.109375 -0.3125q0.875 0 1.6875 0.484375l-0.796875 2.234375q-0.640625 -0.421875 -1.203125 -0.421875q-0.53125 0 -0.90625 0.296875q-0.375 0.296875 -0.59375 1.078125q-0.203125 0.765625 -0.203125 3.234375l0 2.984375zm4.2133865 -4.96875q0 -1.28125 0.625 -2.46875q0.625 -1.203125 1.78125 -1.828125q1.15625 -0.625 2.578125 -0.625q2.1875 0 3.59375 1.421875q1.40625 1.421875 1.40625 3.609375q0 2.1875 -1.421875 3.640625q-1.421875 1.4375 -3.5625 1.4375q-1.328125 0 -2.546875 -0.59375q-1.203125 -0.609375 -1.828125 -1.765625q-0.625 -1.171875 -0.625 -2.828125zm2.625 0.125q0 1.453125 0.671875 2.21875q0.6875 0.75 1.6875 0.75q1.0 0 1.671875 -0.75q0.6875 -0.765625 0.6875 -2.234375q0 -1.421875 -0.6875 -2.1875q-0.671875 -0.765625 -1.671875 -0.765625q-1.0 0 -1.6875 0.765625q-0.671875 0.765625 -0.671875 2.203125zm18.161606 4.84375l-2.5625 0l0 -4.9375q0 -1.5625 -0.171875 -2.015625q-0.15625 -0.46875 -0.53125 -0.71875q-0.359375 -0.265625 -0.875 -0.265625q-0.671875 0 -1.203125 0.375q-0.53125 0.359375 -0.734375 0.96875q-0.1875 0.59375 -0.1875 2.21875l0 4.375l-2.546875 0l0 -9.671875l2.375 0l0 1.421875q1.265625 -1.640625 3.1875 -1.640625q0.84375 0 1.546875 0.3125q0.703125 0.296875 1.0625 0.78125q0.359375 0.46875 0.5 1.078125q0.140625 0.59375 0.140625 1.703125l0 6.015625zm7.036606 -9.671875l0 2.03125l-1.75 0l0 3.90625q0 1.1875 0.046875 1.390625q0.046875 0.1875 0.21875 0.3125q0.1875 0.125 0.4375 0.125q0.359375 0 1.03125 -0.25l0.21875 2.0q-0.890625 0.375 -2.015625 0.375q-0.703125 0 -1.265625 -0.234375q-0.546875 -0.234375 -0.8125 -0.59375q-0.25 -0.375 -0.34375 -1.0q-0.09375 -0.453125 -0.09375 -1.8125l0 -4.21875l-1.171875 0l0 -2.03125l1.171875 0l0 -1.921875l2.578125 -1.5l0 3.421875l1.75 0zm7.368927 6.59375l2.546875 0.421875q-0.484375 1.40625 -1.546875 2.140625q-1.0625 0.734375 -2.65625 0.734375q-2.515625 0 -3.734375 -1.65625q-0.953125 -1.3125 -0.953125 -3.328125q0 -2.40625 1.25 -3.765625q1.265625 -1.359375 3.1875 -1.359375q2.15625 0 3.40625 1.421875q1.25 1.421875 1.1875 4.375l-6.40625 0q0.03125 1.140625 0.609375 1.78125q0.59375 0.625 1.484375 0.625q0.59375 0 1.0 -0.328125q0.421875 -0.328125 0.625 -1.0625zm0.15625 -2.59375q-0.03125 -1.109375 -0.578125 -1.6875q-0.546875 -0.578125 -1.328125 -0.578125q-0.84375 0 -1.390625 0.609375q-0.546875 0.609375 -0.53125 1.65625l3.828125 0zm13.422592 5.671875l-2.5625 0l0 -4.9375q0 -1.5625 -0.171875 -2.015625q-0.15625 -0.46875 -0.53125 -0.71875q-0.359375 -0.265625 -0.875 -0.265625q-0.671875 0 -1.203125 0.375q-0.53125 0.359375 -0.734375 0.96875q-0.1875 0.59375 -0.1875 2.21875l0 4.375l-2.546875 0l0 -9.671875l2.375 0l0 1.421875q1.265625 -1.640625 3.1875 -1.640625q0.84375 0 1.546875 0.3125q0.703125 0.296875 1.0625 0.78125q0.359375 0.46875 0.5 1.078125q0.140625 0.59375 0.140625 1.703125l0 6.015625zm11.474106 0l-2.390625 0l0 -1.421875q-0.59375 0.828125 -1.40625 1.234375q-0.796875 0.40625 -1.609375 0.40625q-1.671875 0 -2.859375 -1.34375q-1.1875 -1.34375 -1.1875 -3.75q0 -2.453125 1.15625 -3.734375q1.15625 -1.28125 2.921875 -1.28125q1.625 0 2.8125 1.34375l0 -4.8125l2.5625 0l0 13.359375zm-6.84375 -5.046875q0 1.546875 0.4375 2.234375q0.609375 1.015625 1.71875 1.015625q0.890625 0 1.5 -0.75q0.625 -0.765625 0.625 -2.25q0 -1.671875 -0.609375 -2.40625q-0.59375 -0.734375 -1.53125 -0.734375q-0.90625 0 -1.53125 0.734375q-0.609375 0.71875 -0.609375 2.15625z" fill-rule="nonzero"/><path fill="#000000" fill-opacity="0.0" d="m215.74803 268.32703l44.913376 -100.88188" fill-rule="evenodd"/><path stroke="#cccccc" stroke-width="3.0" stroke-linejoin="round" stroke-linecap="butt" d="m215.74803 268.32703l37.592422 -84.43794" fill-rule="evenodd"/><path fill="#cccccc" stroke="#cccccc" stroke-width="3.0" stroke-linecap="butt" d="m257.86728 185.90448l1.010376 -14.452759l-10.064041 10.421997z" fill-rule="evenodd"/><path fill="#000000" fill-opacity="0.0" d="m215.74803 52.185307l45.16536 89.19685" fill-rule="evenodd"/><path stroke="#cccccc" stroke-width="3.0" stroke-linejoin="round" stroke-linecap="butt" d="m215.74803 52.185307l37.03395 73.1382" fill-rule="evenodd"/><path fill="#cccccc" stroke="#cccccc" stroke-width="3.0" stroke-linecap="butt" d="m248.36122 127.56198l10.570938 9.907471l-1.7294006 -14.38443z" fill-rule="evenodd"/><path fill="#000000" fill-opacity="0.0" d="m224.60547 62.17232l45.165344 0l0 37.73228l-45.165344 0z" fill-rule="evenodd"/><path fill="#b7b7b7" d="m239.14127 87.95846l0 -13.359375l2.6875 0l0 13.359375l-2.6875 0zm5.261429 0l0 -13.359375l5.6875 0q2.140625 0 3.109375 0.359375q0.96875 0.359375 1.546875 1.28125q0.578125 0.921875 0.578125 2.109375q0 1.5 -0.890625 2.484375q-0.875 0.96875 -2.625 1.234375q0.875 0.5 1.4375 1.125q0.578125 0.609375 1.53125 2.15625l1.6406403 2.609375l-3.2343903 0l-1.9375 -2.90625q-1.046875 -1.5625 -1.4375 -1.96875q-0.375 -0.40625 -0.8125 -0.546875q-0.421875 -0.15625 -1.34375 -0.15625l-0.546875 0l0 5.578125l-2.703125 0zm2.703125 -7.703125l2.0 0q1.9375 0 2.421875 -0.15625q0.484375 -0.171875 0.75 -0.578125q0.28125 -0.40625 0.28125 -1.0q0 -0.671875 -0.359375 -1.078125q-0.359375 -0.421875 -1.015625 -0.53125q-0.328125 -0.046875 -1.96875 -0.046875l-2.109375 0l0 3.390625z" fill-rule="nonzero"/><path fill="#000000" fill-opacity="0.0" d="m222.50021 223.85722l45.165344 0l0 37.732285l-45.165344 0z" fill-rule="evenodd"/><path fill="#b7b7b7" d="m237.03601 249.64336l0 -13.359375l2.6875 0l0 13.359375l-2.6875 0zm5.261429 0l0 -13.359375l5.6875 0q2.140625 0 3.109375 0.359375q0.96875 0.359375 1.546875 1.28125q0.578125 0.921875 0.578125 2.109375q0 1.5 -0.890625 2.484375q-0.875 0.96875 -2.625 1.234375q0.875 0.5 1.4375 1.125q0.578125 0.609375 1.53125 2.15625l1.640625 2.609375l-3.234375 0l-1.9375 -2.90625q-1.046875 -1.5625 -1.4375 -1.96875q-0.375 -0.40625 -0.8125 -0.546875q-0.421875 -0.15625 -1.34375 -0.15625l-0.546875 0l0 5.578125l-2.703125 0zm2.703125 -7.703125l2.0 0q1.9375 0 2.421875 -0.15625q0.484375 -0.171875 0.75 -0.578125q0.28125 -0.40625 0.28125 -1.0q0 -0.671875 -0.359375 -1.078125q-0.359375 -0.421875 -1.015625 -0.53125q-0.328125 -0.046875 -1.96875 -0.046875l-2.109375 0l0 3.390625z" fill-rule="nonzero"/><path fill="#000000" fill-opacity="0.0" d="m571.11285 52.185307l75.24408 0" fill-rule="evenodd"/><path stroke="#000000" stroke-width="3.0" stroke-linejoin="round" stroke-linecap="butt" d="m571.11285 52.185307l57.24408 0" fill-rule="evenodd"/><path fill="#000000" stroke="#000000" stroke-width="3.0" stroke-linecap="butt" d="m628.35693 57.140503l13.614319 -4.9551964l-13.614319 -4.9551964z" fill-rule="evenodd"/><path fill="#000000" fill-opacity="0.0" d="m571.11285 160.25616l75.24408 0" fill-rule="evenodd"/><path stroke="#000000" stroke-width="3.0" stroke-linejoin="round" stroke-linecap="butt" d="m571.11285 160.25616l57.24408 0" fill-rule="evenodd"/><path fill="#000000" stroke="#000000" stroke-width="3.0" stroke-linecap="butt" d="m628.35693 165.21136l13.614319 -4.9552l-13.614319 -4.955185z" fill-rule="evenodd"/><path fill="#000000" fill-opacity="0.0" d="m571.11285 268.32703l75.24408 0" fill-rule="evenodd"/><path stroke="#000000" stroke-width="3.0" stroke-linejoin="round" stroke-linecap="butt" d="m571.11285 268.32703l57.24408 0" fill-rule="evenodd"/><path fill="#000000" stroke="#000000" stroke-width="3.0" stroke-linecap="butt" d="m628.35693 273.28223l13.614319 -4.9552l-13.614319 -4.9552z" fill-rule="evenodd"/><path fill="#000000" fill-opacity="0.0" d="m562.2538 17.456614l82.64569 0l0 37.732285l-82.64569 0z" fill-rule="evenodd"/><path fill="#000000" d="m581.3266 38.070877q-1.171875 -1.265625 -1.015625 -1.40625l0.21875 8.28125l-2.03125 0l0.390625 -8.484375q-0.328125 2.265625 -1.90625 4.15625l-1.3125 -2.09375q1.8125 -2.59375 2.625 -5.59375l-1.953125 0l0 -2.203123l2.15625 0l0 -3.5625l1.609375 0q1.609375 0.21875 0.421875 1.046875l0 2.515625l1.71875 0l0 2.203123l-1.71875 0l0 1.453125q1.203125 0.65625 2.015625 1.6875l-1.21875 2.0zm7.15625 -4.578125q0 1.765625 0.109375 2.953125l1.140625 0q0 -0.03125 -0.671875 -0.953125l2.21875 -0.59375q0.734375 1.03125 0.890625 1.546875l1.65625 0l0 1.96875l-5.0625 0q0.140625 0.984375 0.40625 1.546875q0.53125 -0.484375 1.5 -2.15625l1.625 0.84375q1.25 0.828125 -0.1875 1.125q-0.90625 1.390625 -1.53125 1.984375q0.640625 0.625 1.140625 0.625q0.109375 0 0.359375 -1.8125l2.0 1.1875q-0.28125 2.21875 -1.25 2.828125q-1.515625 1.0 -3.953125 -1.4375q-1.34375 1.03125 -3.90625 1.8125l-0.984375 -2.140625q2.296875 -0.625 3.53125 -1.5q-0.6875 -1.40625 -0.828125 -2.90625l-2.0 0l0 0.4375q1.140625 0.390625 2.671875 1.53125l-1.34375 2.0q-0.90625 -0.78125 -1.421875 -1.140625q-0.296875 2.046875 -2.703125 3.828125l-1.796875 -1.78125q2.40625 -1.40625 2.328125 -4.0l0 -0.875l-0.8125 0l0 -1.96875l4.9375 0q-0.03125 -0.328125 -0.015625 -0.34375l-0.96875 0.359375l-0.15625 -0.8125l-2.4375 0.34375q-0.375 1.25 -0.953125 0.015625l-0.625 -1.9375l1.046875 0l0.609375 -1.0625l-1.578125 -1.1093731l1.015625 -1.640625l0.234375 0.390625l1.359375 -3.296875l1.515625 1.03125q0.984375 0.984375 -0.1875 0.984375l-1.25 2.015625l-0.109375 -0.078125l1.171875 -2.0l1.34375 0.921875q0.984375 0.984375 -0.1875 0.984375l-1.75 2.718748l0.25 -0.03125l-0.40625 -1.0625l1.53125 -0.640625q0.8125 1.21875 0.828125 2.859375l-0.390625 -7.734373l1.609375 0q1.609375 0.21875 0.4375 1.03125l0 5.140623zm3.40625 1.640625l-2.453125 0.484375q-0.328125 1.25 -0.96875 0.046875l-0.59375 -1.828125l0.953125 -0.109375l0.578125 -0.875l-1.78125 -1.3437481l1.03125 -1.546875l0.296875 0.3125l1.4375 -2.90625l1.4375 0.921875q0.984375 1.0 -0.1875 1.0l-1.171875 1.796875l0.03125 0.015625l1.15625 -1.828125l1.34375 0.71875q1.0 1.0 -0.1875 1.0l-1.75 2.515623l0.25 -0.03125l-0.4375 -1.0l1.6875 -0.375q0.9375 1.390625 1.40625 3.28125l-1.84375 0.625l-0.234375 -0.875zm11.84375 7.78125q2.78125 -1.546875 3.84375 -3.265625q-0.8125 -4.703125 -0.8125 -7.25l-5.265625 0l0 -2.187498l5.265625 0l0 -3.265625l1.8125 0q1.8125 0 0.453125 1.03125l0 2.15625l3.421875 0l0 2.203123l-3.4375 0q-0.046875 1.671875 0.3125 4.3125q0.28125 -0.53125 0.875 -3.703125l1.859375 0.78125q1.46875 0.65625 0.03125 1.109375q-0.640625 2.65625 -1.96875 4.921875q0.40625 1.09375 1.03125 1.703125q-0.203125 0.203125 -0.4375 0.046875l0.296875 -1.875l2.046875 1.234375q-0.1875 1.953125 -0.734375 2.921875q-0.53125 0.921875 -1.40625 0.703125q-1.046875 -0.25 -2.328125 -2.5q-1.3125 1.75 -3.671875 3.09375l-1.1875 -2.171875zm2.390625 -10.546875q1.859375 0 0.46875 1.03125l0 2.234375l1.03125 0l0 2.1875l-1.03125 0l0 3.9375l-2.046875 0l0 -3.9375l-0.328125 0l0 1.765625q0 2.953125 -2.59375 4.71875l-1.15625 -1.953125q1.703125 -1.109375 1.703125 -3.21875l0 -1.3125l-0.96875 0l0 -2.1875l0.96875 0l0 -3.1875l1.578125 0q1.859375 0 0.46875 1.03125l0 2.15625l0.328125 0l0 -3.265625l1.578125 0zm-4.515625 -1.4843731l0 2.187498l-1.625 0l0 1.671875q1.171875 0.578125 1.984375 1.40625l-1.078125 2.734375q-1.0 -1.265625 -0.953125 -1.28125l0.046875 7.34375l-2.265625 0l0.390625 -7.734375q-0.25 2.109375 -1.921875 4.09375l-1.296875 -2.359375q2.546875 -3.15625 2.796875 -5.875l-2.34375 0l0 -2.187498l2.375 0l0 -3.78125l1.796875 0q1.859375 0 0.46875 1.03125l0 2.75l1.625 0zm9.078125 -0.078125q-1.03125 -1.015625 -2.34375 -1.921875l1.484375 -1.578125q1.375 0.765625 2.296875 1.8125l-1.4375 1.6875zm3.4375 -0.515625l7.234375 0l0 2.187498l-7.234375 0l0 -2.187498zm7.125 -0.484375l0 -1.96875l10.046875 0l0 1.96875l-4.65625 0l-0.234375 1.296875l3.359375 0l-0.15625 3.781248l2.21875 0l0 1.96875l-11.109375 0l0 -1.96875l2.6875 0l0.421875 -1.8125l-2.0625 0l0 -1.9687481l2.4375 0l0.234375 -1.296875l-3.1875 0zm-6.171875 0l0 -2.1875l5.3125 0l0 2.1875l-5.3125 0zm0 5.343748l0 -2.1875l5.3125 0l0 2.1875l-5.3125 0zm0 2.59375l0 -2.1875l5.3125 0l0 2.1875l-5.3125 0zm-0.296875 7.359375l0 -6.875l5.984375 0l0 6.5l-2.046875 0l0 -0.515625l-1.890625 0l0 0.890625l-2.046875 0zm2.046875 -2.859375l1.890625 0l0 -2.046875l-1.890625 0l0 2.046875zm5.234375 2.703125l0 -7.53125l8.578125 0l0 7.46875l-2.265625 0l0 -0.75l-4.046875 0l0 0.8125l-2.265625 0zm6.3125 -3.0l0 -2.34375l-4.046875 0l0 2.34375l4.046875 0zm-2.703125 -7.0625l1.75 0l0.109375 -1.8125l-1.484375 0l-0.375 1.8125z" fill-rule="nonzero"/><path fill="#000000" fill-opacity="0.0" d="m562.2538 124.54323l82.64569 0l0 37.732285l-82.64569 0z" fill-rule="evenodd"/><path fill="#000000" d="m581.3266 145.15749q-1.171875 -1.265625 -1.015625 -1.40625l0.21875 8.28125l-2.03125 0l0.390625 -8.484375q-0.328125 2.265625 -1.90625 4.15625l-1.3125 -2.09375q1.8125 -2.59375 2.625 -5.59375l-1.953125 0l0 -2.203125l2.15625 0l0 -3.5625l1.609375 0q1.609375 0.21875 0.421875 1.046875l0 2.515625l1.71875 0l0 2.203125l-1.71875 0l0 1.453125q1.203125 0.65625 2.015625 1.6875l-1.21875 2.0zm7.15625 -4.578125q0 1.765625 0.109375 2.953125l1.140625 0q0 -0.03125 -0.671875 -0.953125l2.21875 -0.59375q0.734375 1.03125 0.890625 1.546875l1.65625 0l0 1.96875l-5.0625 0q0.140625 0.984375 0.40625 1.546875q0.53125 -0.484375 1.5 -2.15625l1.625 0.84375q1.25 0.828125 -0.1875 1.125q-0.90625 1.390625 -1.53125 1.984375q0.640625 0.625 1.140625 0.625q0.109375 0 0.359375 -1.8125l2.0 1.1875q-0.28125 2.21875 -1.25 2.828125q-1.515625 1.0 -3.953125 -1.4375q-1.34375 1.03125 -3.90625 1.8125l-0.984375 -2.140625q2.296875 -0.625 3.53125 -1.5q-0.6875 -1.40625 -0.828125 -2.90625l-2.0 0l0 0.4375q1.140625 0.390625 2.671875 1.53125l-1.34375 2.0q-0.90625 -0.78125 -1.421875 -1.140625q-0.296875 2.046875 -2.703125 3.828125l-1.796875 -1.78125q2.40625 -1.40625 2.328125 -4.0l0 -0.875l-0.8125 0l0 -1.96875l4.9375 0q-0.03125 -0.328125 -0.015625 -0.34375l-0.96875 0.359375l-0.15625 -0.8125l-2.4375 0.34375q-0.375 1.25 -0.953125 0.015625l-0.625 -1.9375l1.046875 0l0.609375 -1.0625l-1.578125 -1.109375l1.015625 -1.640625l0.234375 0.390625l1.359375 -3.296875l1.515625 1.03125q0.984375 0.984375 -0.1875 0.984375l-1.25 2.015625l-0.109375 -0.078125l1.171875 -2.0l1.34375 0.921875q0.984375 0.984375 -0.1875 0.984375l-1.75 2.71875l0.25 -0.03125l-0.40625 -1.0625l1.53125 -0.640625q0.8125 1.21875 0.828125 2.859375l-0.390625 -7.734375l1.609375 0q1.609375 0.21875 0.4375 1.03125l0 5.140625zm3.40625 1.640625l-2.453125 0.484375q-0.328125 1.25 -0.96875 0.046875l-0.59375 -1.828125l0.953125 -0.109375l0.578125 -0.875l-1.78125 -1.34375l1.03125 -1.546875l0.296875 0.3125l1.4375 -2.90625l1.4375 0.921875q0.984375 1.0 -0.1875 1.0l-1.171875 1.796875l0.03125 0.015625l1.15625 -1.828125l1.34375 0.71875q1.0 1.0 -0.1875 1.0l-1.75 2.515625l0.25 -0.03125l-0.4375 -1.0l1.6875 -0.375q0.9375 1.390625 1.40625 3.28125l-1.84375 0.625l-0.234375 -0.875zm11.84375 7.78125q2.78125 -1.546875 3.84375 -3.265625q-0.8125 -4.703125 -0.8125 -7.25l-5.265625 0l0 -2.1875l5.265625 0l0 -3.265625l1.8125 0q1.8125 0 0.453125 1.03125l0 2.15625l3.421875 0l0 2.203125l-3.4375 0q-0.046875 1.671875 0.3125 4.3125q0.28125 -0.53125 0.875 -3.703125l1.859375 0.78125q1.46875 0.65625 0.03125 1.109375q-0.640625 2.65625 -1.96875 4.921875q0.40625 1.09375 1.03125 1.703125q-0.203125 0.203125 -0.4375 0.046875l0.296875 -1.875l2.046875 1.234375q-0.1875 1.953125 -0.734375 2.921875q-0.53125 0.921875 -1.40625 0.703125q-1.046875 -0.25 -2.328125 -2.5q-1.3125 1.75 -3.671875 3.09375l-1.1875 -2.171875zm2.390625 -10.546875q1.859375 0 0.46875 1.03125l0 2.234375l1.03125 0l0 2.1875l-1.03125 0l0 3.9375l-2.046875 0l0 -3.9375l-0.328125 0l0 1.765625q0 2.953125 -2.59375 4.71875l-1.15625 -1.953125q1.703125 -1.109375 1.703125 -3.21875l0 -1.3125l-0.96875 0l0 -2.1875l0.96875 0l0 -3.1875l1.578125 0q1.859375 0 0.46875 1.03125l0 2.15625l0.328125 0l0 -3.265625l1.578125 0zm-4.515625 -1.484375l0 2.1875l-1.625 0l0 1.671875q1.171875 0.578125 1.984375 1.40625l-1.078125 2.734375q-1.0 -1.265625 -0.953125 -1.28125l0.046875 7.34375l-2.265625 0l0.390625 -7.734375q-0.25 2.109375 -1.921875 4.09375l-1.296875 -2.359375q2.546875 -3.15625 2.796875 -5.875l-2.34375 0l0 -2.1875l2.375 0l0 -3.78125l1.796875 0q1.859375 0 0.46875 1.03125l0 2.75l1.625 0zm9.078125 -0.078125q-1.03125 -1.015625 -2.34375 -1.921875l1.484375 -1.578125q1.375 0.765625 2.296875 1.8125l-1.4375 1.6875zm3.4375 -0.515625l7.234375 0l0 2.1875l-7.234375 0l0 -2.1875zm7.125 -0.484375l0 -1.96875l10.046875 0l0 1.96875l-4.65625 0l-0.234375 1.296875l3.359375 0l-0.15625 3.78125l2.21875 0l0 1.96875l-11.109375 0l0 -1.96875l2.6875 0l0.421875 -1.8125l-2.0625 0l0 -1.96875l2.4375 0l0.234375 -1.296875l-3.1875 0zm-6.171875 0l0 -2.1875l5.3125 0l0 2.1875l-5.3125 0zm0 5.34375l0 -2.1875l5.3125 0l0 2.1875l-5.3125 0zm0 2.59375l0 -2.1875l5.3125 0l0 2.1875l-5.3125 0zm-0.296875 7.359375l0 -6.875l5.984375 0l0 6.5l-2.046875 0l0 -0.515625l-1.890625 0l0 0.890625l-2.046875 0zm2.046875 -2.859375l1.890625 0l0 -2.046875l-1.890625 0l0 2.046875zm5.234375 2.703125l0 -7.53125l8.578125 0l0 7.46875l-2.265625 0l0 -0.75l-4.046875 0l0 0.8125l-2.265625 0zm6.3125 -3.0l0 -2.34375l-4.046875 0l0 2.34375l4.046875 0zm-2.703125 -7.0625l1.75 0l0.109375 -1.8125l-1.484375 0l-0.375 1.8125z" fill-rule="nonzero"/><path fill="#000000" fill-opacity="0.0" d="m561.97284 230.59572l82.64563 0l0 37.732285l-82.64563 0z" fill-rule="evenodd"/><path fill="#000000" d="m581.04565 251.20999q-1.171875 -1.265625 -1.015625 -1.40625l0.21875 8.28125l-2.03125 0l0.390625 -8.484375q-0.328125 2.265625 -1.90625 4.15625l-1.3125 -2.09375q1.8125 -2.59375 2.625 -5.59375l-1.953125 0l0 -2.203125l2.15625 0l0 -3.5625l1.609375 0q1.609375 0.21875 0.421875 1.046875l0 2.515625l1.71875 0l0 2.203125l-1.71875 0l0 1.453125q1.203125 0.65625 2.015625 1.6875l-1.21875 2.0zm7.15625 -4.578125q0 1.765625 0.109375 2.953125l1.140625 0q0 -0.03125 -0.671875 -0.953125l2.21875 -0.59375q0.734375 1.03125 0.890625 1.546875l1.65625 0l0 1.96875l-5.0625 0q0.140625 0.984375 0.40625 1.546875q0.53125 -0.484375 1.5 -2.15625l1.625 0.84375q1.25 0.828125 -0.1875 1.125q-0.90625 1.390625 -1.53125 1.984375q0.640625 0.625 1.140625 0.625q0.109375 0 0.359375 -1.8125l2.0 1.1875q-0.28125 2.21875 -1.25 2.828125q-1.515625 1.0 -3.953125 -1.4375q-1.34375 1.03125 -3.90625 1.8125l-0.984375 -2.140625q2.296875 -0.625 3.53125 -1.5q-0.6875 -1.40625 -0.828125 -2.90625l-2.0 0l0 0.4375q1.140625 0.390625 2.671875 1.53125l-1.34375 2.0q-0.90625 -0.78125 -1.421875 -1.140625q-0.296875 2.046875 -2.703125 3.828125l-1.796875 -1.78125q2.40625 -1.40625 2.328125 -4.0l0 -0.875l-0.8125 0l0 -1.96875l4.9375 0q-0.03125 -0.328125 -0.015625 -0.34375l-0.96875 0.359375l-0.15625 -0.8125l-2.4375 0.34375q-0.375 1.25 -0.953125 0.015625l-0.625 -1.9375l1.046875 0l0.609375 -1.0625l-1.578125 -1.109375l1.015625 -1.640625l0.234375 0.390625l1.359375 -3.296875l1.515625 1.03125q0.984375 0.984375 -0.1875 0.984375l-1.25 2.015625l-0.109375 -0.078125l1.171875 -2.0l1.34375 0.921875q0.984375 0.984375 -0.1875 0.984375l-1.75 2.71875l0.25 -0.03125l-0.40625 -1.0625l1.53125 -0.640625q0.8125 1.21875 0.828125 2.859375l-0.390625 -7.734375l1.609375 0q1.609375 0.21875 0.4375 1.03125l0 5.140625zm3.40625 1.640625l-2.453125 0.484375q-0.328125 1.25 -0.96875 0.046875l-0.59375 -1.828125l0.953125 -0.109375l0.578125 -0.875l-1.78125 -1.34375l1.03125 -1.546875l0.296875 0.3125l1.4375 -2.90625l1.4375 0.921875q0.984375 1.0 -0.1875 1.0l-1.171875 1.796875l0.03125 0.015625l1.15625 -1.828125l1.34375 0.71875q1.0 1.0 -0.1875 1.0l-1.75 2.515625l0.25 -0.03125l-0.4375 -1.0l1.6875 -0.375q0.9375 1.390625 1.40625 3.28125l-1.84375 0.625l-0.234375 -0.875zm11.84375 7.78125q2.78125 -1.546875 3.84375 -3.265625q-0.8125 -4.703125 -0.8125 -7.25l-5.265625 0l0 -2.1875l5.265625 0l0 -3.265625l1.8125 0q1.8125 0 0.453125 1.03125l0 2.15625l3.421875 0l0 2.203125l-3.4375 0q-0.046875 1.671875 0.3125 4.3125q0.28125 -0.53125 0.875 -3.703125l1.859375 0.78125q1.46875 0.65625 0.03125 1.109375q-0.640625 2.65625 -1.96875 4.921875q0.40625 1.09375 1.03125 1.703125q-0.203125 0.203125 -0.4375 0.046875l0.296875 -1.875l2.046875 1.234375q-0.1875 1.953125 -0.734375 2.921875q-0.53125 0.921875 -1.40625 0.703125q-1.046875 -0.25 -2.328125 -2.5q-1.3125 1.75 -3.671875 3.09375l-1.1875 -2.171875zm2.390625 -10.546875q1.859375 0 0.46875 1.03125l0 2.234375l1.03125 0l0 2.1875l-1.03125 0l0 3.9375l-2.046875 0l0 -3.9375l-0.328125 0l0 1.765625q0 2.953125 -2.59375 4.71875l-1.15625 -1.953125q1.703125 -1.109375 1.703125 -3.21875l0 -1.3125l-0.96875 0l0 -2.1875l0.96875 0l0 -3.1875l1.578125 0q1.859375 0 0.46875 1.03125l0 2.15625l0.328125 0l0 -3.265625l1.578125 0zm-4.515625 -1.484375l0 2.1875l-1.625 0l0 1.671875q1.171875 0.578125 1.984375 1.40625l-1.078125 2.734375q-1.0 -1.265625 -0.953125 -1.28125l0.046875 7.34375l-2.265625 0l0.390625 -7.734375q-0.25 2.109375 -1.921875 4.09375l-1.296875 -2.359375q2.546875 -3.15625 2.796875 -5.875l-2.34375 0l0 -2.1875l2.375 0l0 -3.78125l1.796875 0q1.859375 0 0.46875 1.03125l0 2.75l1.625 0zm9.078125 -0.078125q-1.03125 -1.015625 -2.34375 -1.921875l1.484375 -1.578125q1.375 0.765625 2.296875 1.8125l-1.4375 1.6875zm3.4375 -0.515625l7.234375 0l0 2.1875l-7.234375 0l0 -2.1875zm7.125 -0.484375l0 -1.96875l10.046875 0l0 1.96875l-4.65625 0l-0.234375 1.296875l3.359375 0l-0.15625 3.78125l2.21875 0l0 1.96875l-11.109375 0l0 -1.96875l2.6875 0l0.421875 -1.8125l-2.0625 0l0 -1.96875l2.4375 0l0.234375 -1.296875l-3.1875 0zm-6.171875 0l0 -2.1875l5.3125 0l0 2.1875l-5.3125 0zm0 5.34375l0 -2.1875l5.3125 0l0 2.1875l-5.3125 0zm0 2.59375l0 -2.1875l5.3125 0l0 2.1875l-5.3125 0zm-0.296875 7.359375l0 -6.875l5.984375 0l0 6.5l-2.046875 0l0 -0.515625l-1.890625 0l0 0.890625l-2.046875 0zm2.046875 -2.859375l1.890625 0l0 -2.046875l-1.890625 0l0 2.046875zm5.234375 2.703125l0 -7.53125l8.578125 0l0 7.46875l-2.265625 0l0 -0.75l-4.046875 0l0 0.8125l-2.265625 0zm6.3125 -3.0l0 -2.34375l-4.046875 0l0 2.34375l4.046875 0zm-2.703125 -7.0625l1.75 0l0.109375 -1.8125l-1.484375 0l-0.375 1.8125z" fill-rule="nonzero"/></g></svg>